<svg width="300" height="300" viewBox="0 0 300 300" fill="none" xmlns="http://www.w3.org/2000/svg">
<mask id="path-1-inside-1_48_229" fill="white">
<rect width="300" height="300" rx="4"/>
</mask>
<rect width="300" height="300" rx="4" fill="#1B1B1B" stroke="white" stroke-width="16" mask="url(#path-1-inside-1_48_229)"/>
<path d="M78.8784 153.44H82.8784L83.9984 147.64H79.3584L80.0784 144.12H84.7184L86.2784 136.08H89.9984L88.4384 144.12H94.5584L96.1184 136.08H99.8784L98.3184 144.12H102.438L101.758 147.64H97.5984L96.4784 153.44H100.958L100.278 156.96H95.7584L94.1984 165H90.4784L92.0384 156.96H85.8784L84.3184 165H80.5984L82.1584 156.96H78.1584L78.8784 153.44ZM86.5984 153.44H92.7184L93.8784 147.64H87.7184L86.5984 153.44ZM111.73 139.6H105.65V136.08H115.49V165H111.73V139.6ZM122.18 165V136.08H133.22C136.047 136.08 138.26 136.76 139.86 138.12C141.487 139.48 142.3 141.347 142.3 143.72C142.3 147.027 140.86 149.28 137.98 150.48C141.207 151.52 142.82 153.787 142.82 157.28C142.82 159.68 141.994 161.573 140.34 162.96C138.714 164.32 136.474 165 133.62 165H122.18ZM132.98 139.56H126.1V148.84H133.22C134.847 148.84 136.1 148.427 136.98 147.6C137.86 146.747 138.3 145.573 138.3 144.08C138.3 142.64 137.834 141.533 136.9 140.76C135.994 139.96 134.687 139.56 132.98 139.56ZM133.54 152.24H126.1V161.52H133.54C135.22 161.52 136.514 161.107 137.42 160.28C138.327 159.453 138.78 158.293 138.78 156.8C138.78 155.36 138.314 154.24 137.38 153.44C136.474 152.64 135.194 152.24 133.54 152.24ZM151.847 139.6H145.767V136.08H155.607V165H151.847V139.6ZM162.298 165V136.08H173.338C176.164 136.08 178.378 136.76 179.978 138.12C181.604 139.48 182.418 141.347 182.418 143.72C182.418 147.027 180.978 149.28 178.098 150.48C181.324 151.52 182.938 153.787 182.938 157.28C182.938 159.68 182.111 161.573 180.458 162.96C178.831 164.32 176.591 165 173.738 165H162.298ZM173.098 139.56H166.218V148.84H173.338C174.964 148.84 176.218 148.427 177.098 147.6C177.978 146.747 178.418 145.573 178.418 144.08C178.418 142.64 177.951 141.533 177.018 140.76C176.111 139.96 174.804 139.56 173.098 139.56ZM173.658 152.24H166.218V161.52H173.658C175.338 161.52 176.631 161.107 177.538 160.28C178.444 159.453 178.898 158.293 178.898 156.8C178.898 155.36 178.431 154.24 177.498 153.44C176.591 152.64 175.311 152.24 173.658 152.24ZM191.964 139.6H185.884V136.08H195.724V165H191.964V139.6ZM202.415 165V136.08H213.455C216.281 136.08 218.495 136.76 220.095 138.12C221.721 139.48 222.535 141.347 222.535 143.72C222.535 147.027 221.095 149.28 218.215 150.48C221.441 151.52 223.055 153.787 223.055 157.28C223.055 159.68 222.228 161.573 220.575 162.96C218.948 164.32 216.708 165 213.855 165H202.415ZM213.215 139.56H206.335V148.84H213.455C215.081 148.84 216.335 148.427 217.215 147.6C218.095 146.747 218.535 145.573 218.535 144.08C218.535 142.64 218.068 141.533 217.135 140.76C216.228 139.96 214.921 139.56 213.215 139.56ZM213.775 152.24H206.335V161.52H213.775C215.455 161.52 216.748 161.107 217.655 160.28C218.561 159.453 219.015 158.293 219.015 156.8C219.015 155.36 218.548 154.24 217.615 153.44C216.708 152.64 215.428 152.24 213.775 152.24Z" fill="white"/>
</svg>
