<svg width="119" height="88" viewBox="0 0 119 88" fill="none" xmlns="http://www.w3.org/2000/svg">
<path d="M13.8678 12.0844C14.2787 11.4726 14.8311 11.0024 15.5251 10.6736C16.2282 10.3449 17.0409 10.1806 17.9632 10.1806C18.6845 10.1806 19.3009 10.2627 19.8123 10.4271C20.3327 10.5823 20.771 10.7924 21.1272 11.0572C21.4833 11.3128 21.7663 11.6142 21.9764 11.9612C22.1955 12.299 22.3644 12.6506 22.4832 13.0158L22.0449 21.7134C22.1544 21.7408 22.2503 21.7545 22.3325 21.7545C22.4786 21.7545 22.5927 21.7088 22.6749 21.6175C22.7662 21.517 22.821 21.3344 22.8393 21.0696L23.4419 11.0982C23.5972 10.9613 23.8118 10.838 24.0857 10.7284C24.3688 10.6189 24.6747 10.5275 25.0034 10.4545C25.3321 10.3723 25.6654 10.3084 26.0033 10.2627C26.3503 10.2171 26.6698 10.1943 26.962 10.1943C27.6834 10.1943 28.3043 10.2856 28.8248 10.4682C29.3453 10.6417 29.7745 10.8837 30.1123 11.1941C30.4502 11.5046 30.6967 11.8653 30.852 12.2762C31.0072 12.678 31.0848 13.1117 31.0848 13.5774C31.0848 14.1344 30.8611 15.3717 30.4137 17.2893C29.9754 19.1977 29.3225 21.8321 28.455 25.1924C28.2907 25.8133 28.0258 26.3292 27.6606 26.7401C27.3045 27.1419 26.8662 27.4615 26.3457 27.6989C25.8343 27.9363 25.2591 28.1053 24.6199 28.2057C23.9807 28.3062 23.305 28.3564 22.5927 28.3564C22.1088 28.3564 21.6339 28.329 21.1682 28.2742C20.7026 28.2194 20.2551 28.1418 19.826 28.0413C19.4059 27.9318 19.0133 27.7994 18.648 27.6441C18.2828 27.4798 17.9632 27.2926 17.6892 27.0826C17.3514 26.3429 16.9998 25.4389 16.6346 24.3706C16.2693 23.2931 15.9132 22.106 15.5662 20.8094C15.2283 19.5036 14.9088 18.1156 14.6074 16.6455C14.3152 15.1662 14.0687 13.6459 13.8678 12.0844ZM33.3706 14.9334C33.5532 14.8147 33.7358 14.7188 33.9184 14.6458C34.1011 14.5727 34.2974 14.4814 34.5074 14.3718C34.3339 14.2805 34.1559 14.1527 33.9732 13.9883C33.7906 13.8239 33.6217 13.6276 33.4664 13.3993C33.3203 13.1619 33.1971 12.8925 33.0966 12.5912C33.0053 12.2899 32.9597 11.952 32.9597 11.5776C32.9597 10.9932 33.0601 10.4636 33.261 9.9888C33.471 9.50484 33.7541 9.09393 34.1102 8.75608C34.4663 8.40909 34.8818 8.13971 35.3566 7.94796C35.8314 7.7562 36.3428 7.66032 36.8907 7.66032C37.4477 7.66032 37.959 7.76077 38.4247 7.96165C38.8996 8.16254 39.3105 8.43648 39.6575 8.78347C40.0044 9.13046 40.2738 9.54593 40.4656 10.0299C40.6665 10.5047 40.7669 11.0206 40.7669 11.5776C40.7669 12.0525 40.6847 12.4953 40.5204 12.9062C40.3651 13.308 40.1551 13.6687 39.8903 13.9883C39.6255 14.3079 39.315 14.5773 38.9589 14.7964C38.6028 15.0064 38.233 15.1525 37.8495 15.2347C37.8495 15.3717 37.8769 15.495 37.9316 15.6045C37.9956 15.705 38.1006 15.7552 38.2467 15.7552C38.7032 15.7552 39.1781 15.5726 39.6712 15.2073C39.6985 15.2256 39.7442 15.2575 39.8081 15.3032C39.872 15.3489 39.9405 15.4037 40.0136 15.4676C40.0866 15.5315 40.1551 15.5954 40.219 15.6593C40.2829 15.7141 40.324 15.7552 40.3423 15.7826V21.2066C40.3423 21.8366 40.4108 22.38 40.5478 22.8365C40.6847 23.2839 40.945 23.6264 41.3285 23.8638C41.3376 23.9368 41.3422 24.0281 41.3422 24.1377C41.3422 24.2382 41.3422 24.3158 41.3422 24.3706C41.3422 25.0645 41.2463 25.6626 41.0545 26.1649C40.8628 26.6671 40.5934 27.0826 40.2464 27.4113C39.8994 27.7309 39.484 27.9683 39 28.1235C38.5252 28.2788 38.0047 28.3564 37.4386 28.3564C37.0003 28.3564 36.5391 28.2833 36.0552 28.1372C35.5803 27.9911 35.142 27.7446 34.7403 27.3976C34.3476 27.0506 34.0189 26.5895 33.7541 26.0142C33.4984 25.4298 33.3706 24.7039 33.3706 23.8364V14.9334ZM50.9969 28.5344C49.7915 28.5344 48.7095 28.3427 47.7507 27.9592C46.7919 27.5665 45.9747 27.0186 45.2989 26.3155C44.6232 25.6124 44.1027 24.7632 43.7375 23.7679C43.3814 22.7726 43.2033 21.6677 43.2033 20.4533C43.2033 19.1475 43.4225 18.0061 43.8608 17.029C44.2991 16.052 44.8789 15.2439 45.6003 14.6047C46.3217 13.9563 47.1435 13.4724 48.0657 13.1528C48.9971 12.8332 49.9559 12.6734 50.9421 12.6734C51.8643 12.6734 52.7272 12.7921 53.5308 13.0295C54.3344 13.2578 55.0329 13.5957 55.6264 14.0431C56.22 14.4905 56.6857 15.0384 57.0235 15.6867C57.3705 16.3259 57.544 17.061 57.544 17.8919C57.544 18.4489 57.4527 18.9603 57.2701 19.426C57.0874 19.8825 56.8318 20.2798 56.503 20.6176C56.1743 20.9463 55.7771 21.202 55.3114 21.3846C54.8548 21.5673 54.348 21.6586 53.791 21.6586C53.3253 21.6586 52.8962 21.5947 52.5035 21.4668C52.12 21.339 51.7822 21.1609 51.49 20.9326C51.2069 20.6952 50.974 20.4167 50.7914 20.0971C50.6088 19.7684 50.4901 19.4077 50.4353 19.0151C50.2618 19.0151 50.1157 19.047 49.997 19.111C49.8874 19.1657 49.8326 19.2799 49.8326 19.4534C49.8326 19.7456 49.9148 20.056 50.0792 20.3848C50.2527 20.7135 50.4992 21.0194 50.8188 21.3025C51.1384 21.5764 51.5356 21.8092 52.0104 22.001C52.4853 22.1836 53.0331 22.2749 53.6541 22.2749C54.3207 22.2749 54.8777 22.2019 55.3251 22.0558C55.7817 21.9097 56.156 21.7408 56.4482 21.549C56.64 21.8412 56.7998 22.1973 56.9276 22.6174C57.0646 23.0374 57.1331 23.5351 57.1331 24.1103C57.1331 24.6399 57.0053 25.1696 56.7496 25.6992C56.503 26.2197 56.1241 26.6899 55.6127 27.11C55.1105 27.53 54.4759 27.8724 53.7089 28.1372C52.9418 28.402 52.0378 28.5344 50.9969 28.5344ZM61.3501 19.4534H62.1993C62.4367 19.4534 62.6102 19.4123 62.7198 19.3301C62.8294 19.2479 62.8842 19.1383 62.8842 19.0014C62.8842 18.9466 62.875 18.8918 62.8568 18.837H59.7887C59.6882 18.5083 59.6106 18.1476 59.5558 17.755C59.5101 17.3532 59.4873 16.9468 59.4873 16.5359C59.4873 16.2711 59.501 15.9698 59.5284 15.6319C59.5649 15.2849 59.6106 14.9973 59.6654 14.769C60.0489 14.5316 60.4278 14.2759 60.8022 14.002C61.1857 13.7281 61.5236 13.4815 61.8158 13.2624C61.898 13.0706 61.9939 12.8195 62.1034 12.509C62.213 12.1986 62.3226 11.8744 62.4322 11.5366C62.5417 11.1987 62.6467 10.8745 62.7472 10.5641C62.8476 10.2445 62.9344 9.97967 63.0074 9.76965C63.2996 9.6966 63.6877 9.63268 64.1717 9.57789C64.6556 9.5231 65.1487 9.49571 65.6509 9.49571C66.0436 9.49571 66.4362 9.51854 66.8289 9.56419C67.2306 9.60985 67.669 9.6829 68.1438 9.78334V13.1391H70.5133C70.7782 13.5409 70.9745 13.9929 71.1023 14.4951C71.2393 14.9882 71.3078 15.4813 71.3078 15.9744C71.3078 16.4401 71.2393 16.9377 71.1023 17.4673C70.9745 17.9878 70.7782 18.4398 70.5133 18.8233H68.5547V20.8916C68.5547 21.5216 68.6825 21.9736 68.9382 22.2475C69.1939 22.5124 69.5546 22.6448 70.0203 22.6448H70.6092C70.6823 22.9187 70.7462 23.2109 70.801 23.5214C70.8649 23.8318 70.8969 24.1423 70.8969 24.4528C70.8969 25.722 70.4996 26.6899 69.7052 27.3565C68.9108 28.0231 67.7785 28.3564 66.3084 28.3564C65.5688 28.3564 64.893 28.2559 64.2812 28.055C63.6786 27.8542 63.1581 27.5483 62.7198 27.1374C62.2815 26.7264 61.9436 26.2151 61.7062 25.6033C61.4688 24.9824 61.3501 24.2519 61.3501 23.4118V19.4534ZM93.247 13.1391C93.8131 13.1391 94.2834 13.2304 94.6577 13.413C95.0412 13.5957 95.3426 13.8513 95.5617 14.1801C95.443 14.3079 95.3289 14.4631 95.2193 14.6458C95.1189 14.8284 95.0276 15.011 94.9454 15.1936C94.8723 15.3671 94.813 15.5361 94.7673 15.7004C94.7217 15.8556 94.6988 15.9789 94.6988 16.0702C94.6988 16.1798 94.7399 16.2803 94.8221 16.3716C94.9043 16.4537 95.0321 16.4948 95.2056 16.4948C95.3791 15.8191 95.6211 15.253 95.9315 14.7964C96.2511 14.3399 96.6118 13.9746 97.0136 13.7007C97.4245 13.4267 97.8628 13.235 98.3285 13.1254C98.8033 13.0067 99.2827 12.9473 99.7667 12.9473C100.159 12.9473 100.52 12.9747 100.849 13.0295C101.177 13.0752 101.474 13.1391 101.739 13.2213C102.004 13.3035 102.237 13.3993 102.438 13.5089C102.638 13.6094 102.807 13.7098 102.944 13.8102C103.09 14.1938 103.195 14.6001 103.259 15.0293C103.323 15.4584 103.355 15.8785 103.355 16.2894C103.355 17.029 103.287 17.6454 103.15 18.1385C103.022 18.6316 102.88 19.0379 102.725 19.3575C102.579 19.4305 102.396 19.5036 102.177 19.5766C101.958 19.6497 101.716 19.7136 101.451 19.7684C101.196 19.8232 100.922 19.8688 100.63 19.9054C100.337 19.9328 100.05 19.9465 99.7667 19.9465C99.4654 19.9465 99.196 19.9373 98.9586 19.9191C98.7303 19.9008 98.5203 19.878 98.3285 19.8506C98.1368 19.8141 97.9587 19.7775 97.7943 19.741C97.6391 19.6954 97.4793 19.6543 97.3149 19.6177C97.2419 19.6908 97.2054 19.7958 97.2054 19.9328C97.2054 20.0606 97.2875 20.161 97.4519 20.2341C97.6254 20.3072 97.9313 20.3848 98.3696 20.4669V27.3428C98.0591 27.5437 97.7441 27.7081 97.4245 27.8359C97.1049 27.9546 96.7899 28.0459 96.4794 28.1098C96.1781 28.1829 95.8859 28.2285 95.6028 28.2468C95.3289 28.2742 95.0732 28.2879 94.8358 28.2879C94.3244 28.2879 93.8451 28.2377 93.3976 28.1372C92.9502 28.0459 92.5575 27.9044 92.2197 27.7126C91.891 27.5117 91.6307 27.2606 91.439 26.9593C91.2472 26.658 91.1513 26.2973 91.1513 25.8772V18.8233C90.8774 18.4398 90.6719 18.0061 90.535 17.5221C90.4071 17.0382 90.3432 16.5314 90.3432 16.0017C90.3432 15.5634 90.4071 15.0795 90.535 14.5499C90.6719 14.0203 90.8774 13.55 91.1513 13.1391H93.247Z" fill="white"/>
<path d="M80.7159 28.5344C79.6475 28.5344 78.6431 28.3701 77.7026 28.0413C76.7712 27.7126 75.9585 27.215 75.2645 26.5484C74.5797 25.8818 74.0364 25.0509 73.6346 24.0555C73.2328 23.0602 73.0319 21.896 73.0319 20.5628C73.0319 19.3575 73.2191 18.2709 73.5935 17.303C73.9679 16.3259 74.4929 15.495 75.1687 14.8101C75.8444 14.1253 76.6525 13.6002 77.593 13.235C78.5335 12.8697 79.5745 12.6871 80.7159 12.6871C81.8573 12.6871 82.8983 12.8834 83.8388 13.2761C84.7793 13.6687 85.5829 14.2211 86.2495 14.9334C86.9252 15.6365 87.4457 16.4811 87.8109 17.4673C88.1853 18.4444 88.3725 19.5173 88.3725 20.6861C88.3725 21.8914 88.199 22.9781 87.852 23.946C87.505 24.9139 87.0028 25.7403 86.3453 26.4251C85.6879 27.1008 84.8843 27.6213 83.9347 27.9866C82.985 28.3518 81.9121 28.5344 80.7159 28.5344ZM80.4009 22.8776C80.4648 22.9415 80.5607 22.9735 80.6885 22.9735C80.862 22.9735 80.9762 22.9233 81.0309 22.8228C81.0949 22.7132 81.1268 22.5397 81.1268 22.3023V20.3437C81.1268 19.9328 81.1177 19.5858 81.0994 19.3027C81.0903 19.0196 81.0629 18.7868 81.0172 18.6042C80.9716 18.4215 80.9122 18.3028 80.8392 18.248C80.7753 18.1933 80.6976 18.1659 80.6063 18.1659C80.5242 18.1659 80.4557 18.1796 80.4009 18.207C80.3552 18.2343 80.3141 18.2663 80.2776 18.3028C80.2867 18.4489 80.3004 18.5859 80.3187 18.7137C80.337 18.8416 80.3507 18.9877 80.3598 19.152C80.3689 19.3073 80.3781 19.4945 80.3872 19.7136C80.3963 19.9236 80.4009 20.1793 80.4009 20.4806V22.8776Z" fill="#222222"/>
<path fill-rule="evenodd" clip-rule="evenodd" d="M75.9245 15.4281C77.2476 14.0963 79.156 13.4309 81.4975 13.4309C83.8391 13.4309 85.7475 14.0963 87.0705 15.4281C88.3924 16.7611 89.0528 18.6838 89.0528 21.043C89.0528 23.4022 88.3924 25.3249 87.0705 26.6579C85.7475 27.9897 83.8391 28.6551 81.4975 28.6551C79.156 28.6551 77.2476 27.9897 75.9245 26.6579C74.6026 25.3249 73.9423 23.4022 73.9423 21.043C73.9423 18.6838 74.6026 16.7611 75.9245 15.4281ZM79.3451 18.3714C79.3451 18.1845 79.2714 18.0052 79.1402 17.873C79.009 17.7409 78.8311 17.6666 78.6456 17.6666C78.46 17.6666 78.2821 17.7409 78.1509 17.873C78.0197 18.0052 77.946 18.1845 77.946 18.3714V19.1608C77.946 19.3478 78.0197 19.527 78.1509 19.6592C78.2821 19.7914 78.46 19.8657 78.6456 19.8657C78.8311 19.8657 79.009 19.7914 79.1402 19.6592C79.2714 19.527 79.3451 19.3478 79.3451 19.1608V18.3714ZM78.6198 21.9384C78.5967 21.8476 78.5559 21.7623 78.4996 21.6875C78.4434 21.6128 78.3729 21.5501 78.2923 21.5032C78.2118 21.4563 78.1227 21.426 78.0304 21.4142C77.938 21.4023 77.8443 21.4092 77.7546 21.4343C77.665 21.4595 77.5812 21.5024 77.5082 21.5605C77.4352 21.6187 77.3744 21.691 77.3295 21.7731C77.2846 21.8552 77.2563 21.9456 77.2465 22.0388C77.2367 22.1321 77.2454 22.2264 77.2722 22.3162C77.9158 24.6517 80.4611 26.0523 82.7612 25.4073C82.7786 25.4027 82.7958 25.3974 82.8127 25.3915C84.1839 24.8885 85.3345 23.7506 85.7229 22.3117C85.7511 22.2212 85.7609 22.126 85.7517 22.0316C85.7425 21.9373 85.7145 21.8458 85.6694 21.7626C85.6243 21.6794 85.563 21.6062 85.4892 21.5474C85.4154 21.4887 85.3305 21.4455 85.2397 21.4205C85.149 21.3955 85.0541 21.3893 84.9609 21.4021C84.8677 21.4149 84.778 21.4466 84.6971 21.4951C84.6163 21.5437 84.5461 21.6082 84.4906 21.6847C84.4351 21.7613 84.3955 21.8483 84.3741 21.9407C84.1201 22.8789 83.3444 23.6875 82.3594 24.0563C80.7924 24.4791 79.0496 23.4969 78.6198 21.9384ZM84.3495 17.6666C84.7357 17.6666 85.0491 17.9824 85.0491 18.3714V19.1608C85.0491 19.3478 84.9754 19.527 84.8442 19.6592C84.713 19.7914 84.5351 19.8657 84.3495 19.8657C84.164 19.8657 83.986 19.7914 83.8548 19.6592C83.7237 19.527 83.65 19.3478 83.65 19.1608V18.3714C83.65 17.9824 83.9634 17.6666 84.3495 17.6666Z" fill="white"/>
<path d="M41.0501 71.4163C40.4292 71.882 39.7763 72.1879 39.0915 72.334C38.4066 72.4892 37.7492 72.5669 37.1191 72.5669C36.5164 72.5669 35.964 72.5029 35.4618 72.3751C34.9687 72.2473 34.5395 72.0601 34.1743 71.8135C33.8182 71.567 33.5396 71.2611 33.3388 70.8958C33.147 70.5214 33.0511 70.0877 33.0511 69.5946V66.8826H34.0236C34.2336 66.8826 34.3934 66.8689 34.503 66.8415C34.6217 66.805 34.7085 66.7594 34.7632 66.7046C34.818 66.6498 34.85 66.5859 34.8591 66.5128C34.8682 66.4306 34.8728 66.3485 34.8728 66.2663H30.572C30.572 66.3485 30.5765 66.4306 30.5857 66.5128C30.5948 66.5859 30.6222 66.6498 30.6679 66.7046C30.7135 66.7594 30.782 66.805 30.8733 66.8415C30.9738 66.8689 31.1107 66.8826 31.2842 66.8826H32.3252V71.4163C31.9417 71.6629 31.5719 71.8637 31.2157 72.019C30.8687 72.1651 30.5309 72.2792 30.2022 72.3614C29.8734 72.4436 29.5584 72.4984 29.2571 72.5258C28.9557 72.5532 28.6681 72.5669 28.3942 72.5669C27.7915 72.5669 27.2391 72.5029 26.7368 72.3751C26.2437 72.2473 25.8146 72.0601 25.4493 71.8135C25.0932 71.567 24.8147 71.2611 24.6138 70.8958C24.4221 70.5214 24.3262 70.0877 24.3262 69.5946V55.9662C24.8101 55.4548 25.4037 55.0668 26.1068 54.8019C26.8099 54.5371 27.5313 54.4047 28.2709 54.4047C28.7822 54.4047 29.2799 54.4732 29.7639 54.6102C30.2569 54.7472 30.6907 54.9572 31.0651 55.2402C31.4486 55.5142 31.7545 55.8657 31.9828 56.2949C32.211 56.7241 32.3252 57.2263 32.3252 57.8016V60.2396H34.0647C34.0647 59.9839 34.019 59.8196 33.9277 59.7465C33.8364 59.6644 33.6994 59.6233 33.5168 59.6233H33.0511V55.9662C33.5351 55.4548 34.1286 55.0668 34.8317 54.8019C35.5348 54.5371 36.2562 54.4047 36.9958 54.4047C37.5072 54.4047 38.0048 54.4732 38.4888 54.6102C38.9819 54.7472 39.4156 54.9572 39.79 55.2402C40.1735 55.5142 40.4794 55.8657 40.7077 56.2949C40.936 56.7241 41.0501 57.2263 41.0501 57.8016V71.4163Z" fill="white"/>
<g clip-path="url(#clip0_3_1992)">
<path d="M48.6457 59.9126H46.9709V58.1974H43.6104V49.6662H41.9357V70.159H43.6104V75.2823H45.2962V71.863H46.9709V70.159H48.6457V68.455H50.3315V61.6166H48.6457V59.9126ZM45.2962 68.455H43.6104V59.9126H45.2962V68.455Z" fill="white"/>
<path d="M38.575 75.2823H43.6103V76.9975H38.575V75.2823Z" fill="white"/>
<path d="M40.2499 47.951H41.9356V49.6662H40.2499V47.951Z" fill="white"/>
<path d="M38.575 46.2469H40.2498V47.9509H38.575V46.2469Z" fill="white"/>
<path d="M26.8187 44.5318H38.5751V46.247H26.8187V44.5318Z" fill="white"/>
<path d="M33.5397 76.9975H38.575V78.7015H33.5397V76.9975Z" fill="white"/>
<path d="M33.5397 73.5782H38.575V75.2822H33.5397V73.5782Z" fill="white"/>
<path d="M31.8649 75.2823H33.5396V76.9975H31.8649V75.2823Z" fill="white"/>
<path d="M25.1439 46.2469H26.8187V47.9509H25.1439V46.2469Z" fill="white"/>
<path d="M23.4692 47.951H25.1439V49.6662H23.4692V47.951Z" fill="white"/>
<path d="M21.7834 58.1974H18.4339V59.9126H16.7481V61.6166H15.0734V68.455H16.7481V70.159H18.4339V71.863H21.7834V70.159H23.4692V49.6662H21.7834V58.1974ZM21.7834 68.455H20.1086V59.9126H21.7834V68.455Z" fill="white"/>
</g>
<path d="M61.6569 71.7724C61.5473 71.8637 61.4149 71.9596 61.2596 72.0601C61.1135 72.1514 60.9355 72.2336 60.7255 72.3066C60.5154 72.3797 60.2689 72.439 59.9858 72.4847C59.7028 72.5395 59.374 72.5669 58.9997 72.5669C58.5887 72.5669 58.1641 72.5303 57.7258 72.4573C57.2875 72.3842 56.8584 72.261 56.4383 72.0875C56.0274 71.9048 55.6348 71.6629 55.2604 71.3615C54.886 71.0602 54.5573 70.6858 54.2742 70.2384C54.0003 69.7818 53.7811 69.2476 53.6168 68.6358C53.4524 68.0149 53.3702 67.2935 53.3702 66.4717V63.0338C53.1785 62.6959 53.0141 62.3079 52.8771 61.8696C52.7402 61.4221 52.6717 60.9153 52.6717 60.3492C52.6717 60.1027 52.6899 59.847 52.7265 59.5822C52.7539 59.3174 52.7995 59.0571 52.8634 58.8014C52.9273 58.5366 53.0095 58.281 53.11 58.0344C53.2104 57.7879 53.3337 57.5596 53.4798 57.3496H56.4931C57.0227 57.3496 57.5113 57.4135 57.9587 57.5413C58.4061 57.66 58.7896 57.8518 59.1092 58.1166C59.4288 58.3814 59.6754 58.7193 59.8489 59.1302C60.0315 59.5319 60.1228 60.0159 60.1228 60.582V65.0199C60.1228 65.5312 60.1685 65.8828 60.2598 66.0745C60.3602 66.2571 60.4835 66.3485 60.6296 66.3485C60.7209 66.3485 60.7894 66.3348 60.835 66.3074C60.8898 66.28 60.94 66.248 60.9857 66.2115C60.94 66.0563 60.9035 65.8691 60.8761 65.6499C60.8579 65.4308 60.8487 65.1477 60.8487 64.8007V58.0344C61.0222 57.934 61.214 57.8335 61.424 57.7331C61.6432 57.6235 61.8943 57.5276 62.1773 57.4455C62.4604 57.3633 62.7754 57.2948 63.1224 57.24C63.4785 57.1852 63.8849 57.1578 64.3415 57.1578C65.1359 57.1578 65.8207 57.2674 66.396 57.4865C66.9713 57.6966 67.405 57.9614 67.6972 58.281V65.4171C67.6972 66.0471 67.7657 66.5904 67.9027 67.047C68.0396 67.4944 68.2999 67.8369 68.6834 68.0743C68.6925 68.1473 68.6971 68.2386 68.6971 68.3482C68.6971 68.4486 68.6971 68.5263 68.6971 68.5811C68.6971 69.275 68.6012 69.8731 68.4094 70.3753C68.2268 70.8776 67.9711 71.293 67.6424 71.6218C67.3137 71.9414 66.921 72.1788 66.4645 72.334C66.017 72.4892 65.5285 72.5669 64.9989 72.5669C64.3232 72.5669 63.6931 72.4116 63.1087 72.1012C62.5335 71.7907 62.0997 71.3204 61.8075 70.6904C61.4971 70.6904 61.3418 70.841 61.3418 71.1424C61.3418 71.2428 61.3692 71.3478 61.424 71.4574C61.4788 71.567 61.5564 71.672 61.6569 71.7724ZM77.4752 67.9236C77.466 67.9419 77.4569 67.9738 77.4478 68.0195C77.4386 68.0651 77.4341 68.1108 77.4341 68.1564C77.4341 68.3482 77.571 68.4806 77.845 68.5537C78.128 68.6267 78.5024 68.6632 78.9681 68.6632C79.6438 68.6632 80.3059 68.6084 80.9542 68.4989C81.6025 68.3802 82.1549 68.2249 82.6115 68.0332C83.1594 68.1793 83.6205 68.403 83.9949 68.7043C84.3693 68.9965 84.6752 69.3298 84.9126 69.7042C85.15 70.0786 85.3189 70.4804 85.4194 70.9095C85.529 71.3387 85.5837 71.7633 85.5837 72.1833C85.5837 73.0508 85.392 73.8178 85.0085 74.4844C84.625 75.151 84.0862 75.708 83.3922 76.1555C82.7074 76.612 81.8856 76.9544 80.9268 77.1827C79.968 77.4201 78.9179 77.5388 77.7765 77.5388C76.6351 77.5388 75.6352 77.4293 74.7769 77.2101C73.9277 77.0001 73.2154 76.7079 72.6401 76.3335C72.074 75.9683 71.6494 75.5391 71.3663 75.046C71.0833 74.562 70.9417 74.0416 70.9417 73.4846C70.9417 73.238 70.9691 73.0006 71.0239 72.7723C71.0878 72.5532 71.1654 72.3477 71.2568 72.1559C71.3572 71.9642 71.4668 71.7998 71.5855 71.6629C71.7133 71.5168 71.8457 71.4072 71.9827 71.3341C72.4119 71.6994 73.0648 72.0053 73.9414 72.2518C74.818 72.4984 75.8818 72.6216 77.1327 72.6216C77.8267 72.6216 78.3061 72.5851 78.5709 72.5121C78.8357 72.4482 78.9681 72.3203 78.9681 72.1286C78.9681 72.0646 78.959 72.0144 78.9407 71.9779C78.9225 71.9322 78.9042 71.8911 78.8859 71.8546C78.6668 71.9003 78.3929 71.9368 78.0641 71.9642C77.7354 71.9916 77.4386 72.0053 77.1738 72.0053C76.3977 72.0053 75.6489 71.9505 74.9275 71.8409C74.2062 71.7222 73.567 71.5259 73.01 71.252C72.4621 70.978 72.0192 70.6219 71.6814 70.1836C71.3526 69.7362 71.1883 69.1837 71.1883 68.5263C71.1883 68.0788 71.2796 67.6497 71.4622 67.2388C71.6448 66.8187 71.9325 66.5037 72.3251 66.2937C72.1151 66.1658 71.9005 65.9969 71.6814 65.7869C71.4713 65.5677 71.2796 65.3029 71.1061 64.9925C70.9326 64.682 70.7911 64.3259 70.6815 63.9241C70.5719 63.5223 70.5171 63.0658 70.5171 62.5544C70.5171 61.6595 70.6952 60.8606 71.0513 60.1574C71.4074 59.4543 71.9005 58.8608 72.5306 58.3768C73.1606 57.8929 73.9094 57.5231 74.7769 57.2674C75.6443 57.0117 76.5894 56.8839 77.6121 56.8839C78.1965 56.8839 78.7398 56.9387 79.2421 57.0482C79.7443 57.1487 80.178 57.2628 80.5433 57.3907V56.4319C80.7533 56.3497 81.0364 56.2766 81.3925 56.2127C81.7577 56.1488 82.1549 56.1168 82.5841 56.1168C83.0133 56.1168 83.4105 56.1488 83.7757 56.2127C84.141 56.2766 84.456 56.3954 84.7208 56.5688C84.9856 56.7423 85.1911 56.9843 85.3372 57.2948C85.4924 57.6052 85.57 58.007 85.57 58.5001C85.57 58.7284 85.5563 58.9521 85.529 59.1713C85.5016 59.3813 85.4513 59.5913 85.3783 59.8013C85.2778 60.1027 85.1363 60.404 84.9537 60.7053C85.0724 60.9975 85.1591 61.3171 85.2139 61.6641C85.2778 62.0111 85.3098 62.4403 85.3098 62.9516C85.3098 63.7826 85.1546 64.5176 84.8441 65.1568C84.5336 65.7869 84.0999 66.3165 83.5429 66.7457C82.9859 67.1748 82.3193 67.499 81.5431 67.7181C80.767 67.9373 79.9086 68.0469 78.9681 68.0469C78.6759 68.0469 78.3883 68.0332 78.1052 68.0058C77.8222 67.9784 77.6121 67.951 77.4752 67.9236ZM78.4613 62.4996C78.4613 62.3444 78.4294 62.2257 78.3655 62.1435C78.3107 62.0522 78.2194 62.0065 78.0915 62.0065C78.0002 62.0065 77.918 62.0385 77.845 62.1024C77.7811 62.1572 77.7491 62.2622 77.7491 62.4174V63.8282C77.8313 63.8921 77.9226 63.9241 78.023 63.9241C78.2239 63.9241 78.3472 63.8647 78.3929 63.746C78.4385 63.6182 78.4613 63.4219 78.4613 63.1571V62.4996Z" fill="white"/>
<path d="M95.1836 72.7449C94.1153 72.7449 93.1108 72.5806 92.1703 72.2518C91.2389 71.9231 90.4262 71.4254 89.7323 70.7589C89.0474 70.0923 88.5041 69.2613 88.1023 68.266C87.7006 67.2707 87.4997 66.1065 87.4997 64.7733C87.4997 63.568 87.6869 62.4814 88.0612 61.5134C88.4356 60.5364 88.9607 59.7054 89.6364 59.0206C90.3121 58.3358 91.1202 57.8107 92.0607 57.4455C93.0013 57.0802 94.0422 56.8976 95.1836 56.8976C96.3251 56.8976 97.366 57.0939 98.3065 57.4865C99.2471 57.8792 100.051 58.4316 100.717 59.1439C101.393 59.847 101.913 60.6916 102.279 61.6778C102.653 62.6548 102.84 63.7278 102.84 64.8966C102.84 66.1019 102.667 67.1885 102.32 68.1564C101.973 69.1244 101.471 69.9507 100.813 70.6356C100.156 71.3113 99.3521 71.8318 98.4024 72.197C97.4528 72.5623 96.3798 72.7449 95.1836 72.7449ZM94.8686 67.0881C94.9325 67.152 95.0284 67.184 95.1563 67.184C95.3297 67.184 95.4439 67.1337 95.4987 67.0333C95.5626 66.9237 95.5946 66.7502 95.5946 66.5128V64.5542C95.5946 64.1432 95.5854 63.7963 95.5672 63.5132C95.558 63.2301 95.5306 62.9973 95.485 62.8146C95.4393 62.632 95.38 62.5133 95.3069 62.4585C95.243 62.4037 95.1654 62.3763 95.0741 62.3763C94.9919 62.3763 94.9234 62.39 94.8686 62.4174C94.823 62.4448 94.7819 62.4768 94.7453 62.5133C94.7545 62.6594 94.7682 62.7964 94.7864 62.9242C94.8047 63.0521 94.8184 63.1982 94.8275 63.3625C94.8367 63.5178 94.8458 63.7049 94.8549 63.9241C94.8641 64.1341 94.8686 64.3898 94.8686 64.6911V67.0881Z" fill="#222222"/>
<g clip-path="url(#clip1_3_1992)">
<path fill-rule="evenodd" clip-rule="evenodd" d="M101.033 70.9433C99.9307 72.0635 98.4067 72.7004 96.5557 72.8531C96.5422 72.834 96.5278 72.8157 96.5125 72.7982C95.3576 71.5177 94.478 69.7244 94.0603 67.6433C94.3873 67.6642 94.7219 67.673 95.0641 67.6719C98.1984 67.6587 100.929 66.7 102.939 65.1032C102.942 65.2262 102.944 65.3503 102.944 65.4766C102.944 67.7729 102.307 69.6453 101.033 70.9433ZM102.757 63.4527L102.75 63.4604C100.98 65.1702 98.2988 66.286 95.0587 66.2992C94.6574 66.3015 94.2562 66.2857 93.8563 66.2519C93.8135 65.8048 93.7919 65.3559 93.7915 64.9067C93.7915 62.2447 94.5266 59.843 95.7041 58.0628C97.9405 58.0716 99.7645 58.7195 101.033 60.0088C101.909 60.9005 102.484 62.0646 102.757 63.4527ZM92.4856 66.0576C92.4575 65.6787 92.4424 65.2954 92.4424 64.9067C92.4424 62.4028 93.036 60.0747 94.0549 58.1836C92.5212 58.4252 91.2432 59.0336 90.2859 60.0088C89.2292 61.0828 88.6108 62.5522 88.4294 64.329C89.6496 65.1841 91.0307 65.7726 92.4856 66.0576ZM88.382 65.9258C88.4607 68.0189 89.0943 69.731 90.2859 70.9433C91.3987 72.0756 92.9421 72.7136 94.8191 72.8575C93.7635 71.387 93.0058 69.5366 92.6582 67.4841C91.1497 67.2415 89.6992 66.7133 88.382 65.9269V65.9258Z" fill="white"/>
</g>
<defs>
<clipPath id="clip0_3_1992">
<rect width="35.258" height="35.8737" fill="white" transform="translate(15.0734 43.6797)"/>
</clipPath>
<clipPath id="clip1_3_1992">
<rect width="15.1106" height="15.3745" fill="white" transform="translate(88.1077 57.7729)"/>
</clipPath>
</defs>
</svg>
