<svg width="480" height="378" viewBox="0 0 480 378" fill="none" xmlns="http://www.w3.org/2000/svg">
<rect width="480" height="378" fill="#391F17"/>
<path d="M191.647 150.74V156.534H186.84V165.16C186.84 166.19 187.012 166.948 187.355 167.435C187.699 167.892 188.328 168.121 189.244 168.121H191.647V173.142C190.96 173.371 190.073 173.557 188.986 173.7C187.899 173.843 186.955 173.915 186.154 173.915C183.636 173.915 181.69 173.457 180.317 172.542C178.972 171.626 178.3 170.067 178.3 167.864V156.534H175.124V150.74H178.643L180.489 143.874H186.84V150.74H191.647ZM207.326 150.225C211.474 150.225 214.636 151.198 216.81 153.143C219.013 155.089 220.115 158.065 220.115 162.07V163.529H203.12C203.12 165.16 203.478 166.39 204.193 167.22C204.937 168.05 206.095 168.465 207.669 168.465C209.1 168.465 210.144 168.164 210.802 167.563C211.489 166.963 211.832 166.161 211.832 165.16H220.115C220.115 167.907 219.07 170.052 216.982 171.597C214.893 173.142 211.846 173.915 207.841 173.915C203.635 173.915 200.373 172.942 198.056 170.997C195.738 169.023 194.58 166.047 194.58 162.07C194.58 158.179 195.71 155.232 197.97 153.229C200.23 151.227 203.349 150.225 207.326 150.225ZM207.669 155.676C204.98 155.676 203.478 156.949 203.163 159.495H211.489C211.489 158.322 211.145 157.392 210.459 156.706C209.801 156.019 208.871 155.676 207.669 155.676ZM235.435 150.225C238.897 150.225 241.716 150.812 243.89 151.985C246.064 153.129 247.152 155.003 247.152 157.607V166.448C247.152 166.934 247.266 167.334 247.495 167.649C247.724 167.964 248.067 168.121 248.525 168.121H250.07V173.057C249.984 173.114 249.755 173.214 249.383 173.357C249.04 173.471 248.539 173.586 247.881 173.7C247.223 173.843 246.465 173.915 245.607 173.915C243.947 173.915 242.574 173.672 241.487 173.185C240.428 172.67 239.698 171.969 239.298 171.082C238.211 171.941 236.995 172.627 235.65 173.142C234.305 173.657 232.732 173.915 230.929 173.915C225.608 173.915 222.947 171.798 222.947 167.563C222.947 165.36 223.533 163.687 224.706 162.542C225.908 161.369 227.625 160.568 229.856 160.139C232.088 159.71 235.006 159.495 238.611 159.495V158.379C238.611 157.492 238.297 156.82 237.667 156.362C237.066 155.904 236.279 155.676 235.307 155.676C234.42 155.676 233.647 155.833 232.989 156.148C232.36 156.462 232.045 156.963 232.045 157.65V157.821H223.634C223.605 157.678 223.591 157.478 223.591 157.221C223.591 155.075 224.606 153.372 226.638 152.114C228.698 150.855 231.63 150.225 235.435 150.225ZM238.611 163.529C236.179 163.529 234.377 163.801 233.204 164.345C232.059 164.86 231.487 165.561 231.487 166.448C231.487 167.878 232.46 168.593 234.405 168.593C235.521 168.593 236.494 168.293 237.324 167.692C238.182 167.091 238.611 166.347 238.611 165.46V163.529ZM273.459 143.874H285.218L274.618 156.019L285.433 173.4H274.231L268.094 162.585L262.944 166.791V173.4H253.46V143.874H262.944V156.491L273.459 143.874ZM288.909 148.079V142.286H297.449V148.079H288.909ZM288.909 173.4V150.74H297.449V173.4H288.909ZM318.007 150.74V156.534H313.2V165.16C313.2 166.19 313.372 166.948 313.715 167.435C314.058 167.892 314.688 168.121 315.603 168.121H318.007V173.142C317.32 173.371 316.433 173.557 315.346 173.7C314.259 173.843 313.314 173.915 312.513 173.915C309.996 173.915 308.05 173.457 306.677 172.542C305.332 171.626 304.66 170.067 304.66 167.864V156.534H301.484V150.74H305.003L306.848 143.874H313.2V150.74H318.007Z" fill="white"/>
<path d="M183.159 190.31C182.757 190.31 182.435 190.236 182.193 190.089C181.951 189.942 181.774 189.754 181.662 189.525C181.554 189.292 181.5 189.048 181.5 188.793V184.735H180.411L180.514 183.827H181.5V182.258L182.667 182.142V183.827H184.339V184.735H182.667V188.08C182.667 188.486 182.69 188.78 182.738 188.961C182.785 189.143 182.902 189.257 183.088 189.305C183.278 189.352 183.583 189.376 184.002 189.376H184.3L184.209 190.31H183.159ZM188.06 190.31C187.395 190.31 186.826 190.163 186.355 189.869C185.889 189.571 185.53 189.173 185.279 188.676C185.033 188.175 184.91 187.617 184.91 187.004C184.91 186.39 185.033 185.835 185.279 185.338C185.53 184.836 185.889 184.439 186.355 184.145C186.826 183.847 187.395 183.697 188.06 183.697C188.721 183.697 189.288 183.847 189.759 184.145C190.23 184.439 190.588 184.836 190.835 185.338C191.085 185.835 191.211 186.39 191.211 187.004C191.211 187.617 191.085 188.175 190.835 188.676C190.588 189.173 190.23 189.571 189.759 189.869C189.288 190.163 188.721 190.31 188.06 190.31ZM188.06 189.272C188.691 189.272 189.175 189.074 189.512 188.676C189.849 188.274 190.018 187.717 190.018 187.004C190.018 186.291 189.849 185.735 189.512 185.338C189.175 184.936 188.691 184.735 188.06 184.735C187.434 184.735 186.949 184.936 186.608 185.338C186.271 185.735 186.102 186.291 186.102 187.004C186.102 187.717 186.271 188.274 186.608 188.676C186.949 189.074 187.434 189.272 188.06 189.272ZM195.806 193.318L197.271 189.895L194.626 183.827H195.922L197.906 188.546L199.695 183.827H200.992L197.102 193.318H195.806ZM204.52 190.31C203.854 190.31 203.286 190.163 202.815 189.869C202.348 189.571 201.989 189.173 201.739 188.676C201.492 188.175 201.369 187.617 201.369 187.004C201.369 186.39 201.492 185.835 201.739 185.338C201.989 184.836 202.348 184.439 202.815 184.145C203.286 183.847 203.854 183.697 204.52 183.697C205.181 183.697 205.747 183.847 206.218 184.145C206.689 184.439 207.048 184.836 207.294 185.338C207.545 185.835 207.67 186.39 207.67 187.004C207.67 187.617 207.545 188.175 207.294 188.676C207.048 189.173 206.689 189.571 206.218 189.869C205.747 190.163 205.181 190.31 204.52 190.31ZM204.52 189.272C205.151 189.272 205.635 189.074 205.972 188.676C206.309 188.274 206.478 187.717 206.478 187.004C206.478 186.291 206.309 185.735 205.972 185.338C205.635 184.936 205.151 184.735 204.52 184.735C203.893 184.735 203.409 184.936 203.068 185.338C202.731 185.735 202.562 186.291 202.562 187.004C202.562 187.717 202.731 188.274 203.068 188.676C203.409 189.074 203.893 189.272 204.52 189.272ZM211.156 190.31C210.659 190.31 210.235 190.21 209.885 190.012C209.535 189.808 209.267 189.502 209.081 189.091C208.9 188.68 208.809 188.157 208.809 187.522V183.827H209.976V187.198C209.976 187.872 210.09 188.387 210.319 188.741C210.553 189.095 210.931 189.272 211.454 189.272C211.812 189.272 212.145 189.186 212.452 189.013C212.759 188.84 212.971 188.564 213.087 188.183L212.919 188.819V183.827H214.086V190.18H213.048L212.815 188.935L213.126 189.143C212.914 189.536 212.655 189.83 212.348 190.024C212.046 190.215 211.648 190.31 211.156 190.31ZM215.673 190.18V183.827H216.632L216.775 184.877C217.099 184.475 217.408 184.179 217.702 183.989C218 183.795 218.318 183.697 218.655 183.697C218.763 183.697 218.862 183.71 218.953 183.736L218.836 185.02C218.78 185.007 218.72 184.998 218.655 184.994C218.594 184.985 218.525 184.981 218.447 184.981C218.11 184.981 217.799 185.057 217.514 185.208C217.233 185.355 217.034 185.517 216.917 185.694V190.18H215.673ZM225.202 190.31C224.662 190.31 224.174 190.163 223.737 189.869C223.301 189.575 222.953 189.18 222.694 188.683C222.439 188.186 222.311 187.63 222.311 187.017C222.311 186.433 222.428 185.889 222.661 185.383C222.899 184.877 223.234 184.471 223.666 184.164C224.098 183.853 224.61 183.697 225.202 183.697C225.626 183.697 226.034 183.79 226.428 183.976C226.825 184.158 227.147 184.462 227.393 184.89L227.147 185.059V180.456H228.314V190.18H227.277L227.056 188.832L227.355 189.039C227.169 189.458 226.877 189.776 226.479 189.992C226.082 190.204 225.656 190.31 225.202 190.31ZM225.41 189.272C225.704 189.272 225.993 189.197 226.278 189.046C226.568 188.894 226.806 188.654 226.992 188.326C227.182 187.993 227.277 187.557 227.277 187.017C227.277 186.515 227.182 186.096 226.992 185.759C226.806 185.418 226.568 185.163 226.278 184.994C225.993 184.821 225.704 184.735 225.41 184.735C225.012 184.735 224.671 184.834 224.386 185.033C224.1 185.232 223.882 185.504 223.731 185.85C223.58 186.191 223.504 186.58 223.504 187.017C223.504 187.427 223.58 187.803 223.731 188.145C223.882 188.486 224.1 188.76 224.386 188.968C224.671 189.171 225.012 189.272 225.41 189.272ZM232.926 190.31C232.178 190.31 231.549 190.156 231.039 189.849C230.529 189.543 230.142 189.136 229.879 188.631C229.619 188.121 229.49 187.561 229.49 186.952C229.49 186.36 229.611 185.817 229.853 185.325C230.099 184.832 230.454 184.439 230.916 184.145C231.383 183.847 231.945 183.697 232.601 183.697C233.129 183.697 233.598 183.803 234.008 184.015C234.423 184.223 234.747 184.527 234.981 184.929C235.218 185.327 235.337 185.811 235.337 186.381C235.337 186.472 235.333 186.571 235.324 186.679C235.32 186.783 235.307 186.891 235.285 187.004H230.683C230.739 187.591 230.879 188.049 231.104 188.378C231.329 188.706 231.612 188.938 231.953 189.072C232.295 189.206 232.666 189.272 233.068 189.272C233.362 189.272 233.669 189.242 233.989 189.182C234.308 189.121 234.611 189.026 234.896 188.897L235.052 189.817C234.805 189.925 234.505 190.035 234.151 190.148C233.796 190.256 233.388 190.31 232.926 190.31ZM230.786 186.2H234.131C234.131 185.902 234.075 185.642 233.963 185.422C233.85 185.201 233.68 185.033 233.451 184.916C233.222 184.795 232.93 184.735 232.575 184.735C232.057 184.735 231.657 184.864 231.376 185.124C231.1 185.379 230.903 185.737 230.786 186.2ZM239.43 190.31C238.713 190.31 238.11 190.165 237.622 189.875C237.138 189.581 236.77 189.188 236.52 188.696C236.273 188.199 236.15 187.648 236.15 187.042C236.15 186.412 236.269 185.843 236.507 185.338C236.749 184.832 237.118 184.432 237.615 184.138C238.112 183.844 238.748 183.697 239.521 183.697C239.854 183.697 240.167 183.732 240.461 183.801C240.759 183.866 241.025 183.957 241.259 184.073L241.077 185.098C240.839 184.985 240.586 184.897 240.319 184.832C240.055 184.767 239.78 184.735 239.495 184.735C238.795 184.735 238.261 184.933 237.894 185.331C237.527 185.729 237.343 186.282 237.343 186.991C237.343 187.682 237.518 188.237 237.868 188.657C238.218 189.076 238.752 189.285 239.469 189.285C239.763 189.285 240.044 189.251 240.312 189.182C240.584 189.113 240.844 189.018 241.09 188.897L241.246 189.83C241.073 189.951 240.82 190.061 240.487 190.161C240.154 190.26 239.802 190.31 239.43 190.31ZM243.879 190.31C243.486 190.31 243.142 190.23 242.848 190.07C242.554 189.91 242.325 189.692 242.161 189.415C242.001 189.139 241.921 188.823 241.921 188.469C241.921 188.11 241.999 187.803 242.154 187.548C242.314 187.289 242.526 187.075 242.79 186.906C243.058 186.733 243.356 186.597 243.684 186.498C244.013 186.394 244.352 186.321 244.702 186.278C245.056 186.23 245.396 186.204 245.72 186.2C245.72 185.595 245.601 185.199 245.363 185.013C245.126 184.828 244.782 184.735 244.333 184.735C244.095 184.735 243.84 184.771 243.568 184.845C243.3 184.918 242.997 185.072 242.66 185.305L242.492 184.359C242.746 184.164 243.064 184.006 243.444 183.885C243.825 183.76 244.225 183.697 244.644 183.697C245.18 183.697 245.612 183.793 245.94 183.983C246.269 184.169 246.509 184.484 246.66 184.929C246.811 185.374 246.887 185.979 246.887 186.744V188.041C246.887 188.343 246.9 188.594 246.926 188.793C246.956 188.987 247.021 189.134 247.12 189.234C247.224 189.329 247.388 189.376 247.613 189.376H247.729L247.548 190.31H247.457C247.081 190.31 246.789 190.273 246.582 190.2C246.379 190.126 246.223 190.02 246.115 189.882C246.007 189.744 245.91 189.575 245.824 189.376C245.586 189.653 245.305 189.878 244.981 190.05C244.657 190.223 244.289 190.31 243.879 190.31ZM244.099 189.376C244.41 189.376 244.711 189.298 245 189.143C245.294 188.987 245.534 188.78 245.72 188.521V187.004C245.102 187.025 244.601 187.086 244.216 187.185C243.836 187.284 243.557 187.434 243.38 187.632C243.202 187.831 243.114 188.088 243.114 188.404C243.114 188.745 243.205 188.994 243.386 189.149C243.572 189.301 243.81 189.376 244.099 189.376ZM249.008 190.18V184.735H247.906L248.061 183.827H249.008V182.323C249.008 181.757 249.159 181.305 249.461 180.968C249.764 180.627 250.209 180.456 250.797 180.456C251.013 180.456 251.201 180.471 251.361 180.502C251.525 180.532 251.674 180.573 251.808 180.625L251.627 181.61C251.523 181.571 251.421 181.543 251.322 181.526C251.223 181.504 251.108 181.493 250.978 181.493C250.728 181.493 250.531 181.565 250.388 181.707C250.246 181.846 250.174 182.077 250.174 182.401V183.827H251.886V184.735H250.174V190.18H249.008ZM253.3 190.18V184.735H252.198L252.353 183.827H253.3V182.323C253.3 181.757 253.451 181.305 253.754 180.968C254.056 180.627 254.501 180.456 255.089 180.456C255.305 180.456 255.493 180.471 255.653 180.502C255.817 180.532 255.966 180.573 256.1 180.625L255.919 181.61C255.815 181.571 255.713 181.543 255.614 181.526C255.515 181.504 255.4 181.493 255.271 181.493C255.02 181.493 254.823 181.565 254.681 181.707C254.538 181.846 254.467 182.077 254.467 182.401V183.827H256.178V184.735H254.467V190.18H253.3ZM260.071 190.31C259.324 190.31 258.695 190.156 258.185 189.849C257.675 189.543 257.288 189.136 257.025 188.631C256.765 188.121 256.636 187.561 256.636 186.952C256.636 186.36 256.757 185.817 256.999 185.325C257.245 184.832 257.599 184.439 258.062 184.145C258.529 183.847 259.09 183.697 259.747 183.697C260.274 183.697 260.743 183.803 261.154 184.015C261.569 184.223 261.893 184.527 262.126 184.929C262.364 185.327 262.483 185.811 262.483 186.381C262.483 186.472 262.479 186.571 262.47 186.679C262.466 186.783 262.453 186.891 262.431 187.004H257.828C257.885 187.591 258.025 188.049 258.25 188.378C258.474 188.706 258.758 188.938 259.099 189.072C259.44 189.206 259.812 189.272 260.214 189.272C260.508 189.272 260.815 189.242 261.135 189.182C261.454 189.121 261.757 189.026 262.042 188.897L262.198 189.817C261.951 189.925 261.651 190.035 261.297 190.148C260.942 190.256 260.534 190.31 260.071 190.31ZM257.932 186.2H261.277C261.277 185.902 261.221 185.642 261.109 185.422C260.996 185.201 260.826 185.033 260.596 184.916C260.367 184.795 260.076 184.735 259.721 184.735C259.203 184.735 258.803 184.864 258.522 185.124C258.245 185.379 258.049 185.737 257.932 186.2ZM263.659 190.18V183.827H264.826V190.18H263.659ZM263.659 182.401V181.104H264.826V182.401H263.659ZM266.407 190.18V183.827H267.314L267.548 185.046L267.094 184.851C267.522 184.376 267.939 184.065 268.345 183.918C268.755 183.771 269.155 183.697 269.544 183.697C270.473 183.697 271.137 183.965 271.534 184.501C271.936 185.037 272.137 185.763 272.137 186.679V190.18H270.97V186.679C270.97 186.005 270.845 185.513 270.594 185.201C270.344 184.89 269.916 184.735 269.311 184.735C268.883 184.735 268.49 184.83 268.131 185.02C267.777 185.206 267.543 185.504 267.431 185.915L267.573 185.201V190.18H266.407ZM275.127 190.31C274.734 190.31 274.39 190.23 274.096 190.07C273.802 189.91 273.573 189.692 273.409 189.415C273.249 189.139 273.169 188.823 273.169 188.469C273.169 188.11 273.247 187.803 273.403 187.548C273.562 187.289 273.774 187.075 274.038 186.906C274.306 186.733 274.604 186.597 274.932 186.498C275.261 186.394 275.6 186.321 275.95 186.278C276.305 186.23 276.644 186.204 276.968 186.2C276.968 185.595 276.849 185.199 276.611 185.013C276.374 184.828 276.03 184.735 275.581 184.735C275.343 184.735 275.088 184.771 274.816 184.845C274.548 184.918 274.245 185.072 273.908 185.305L273.74 184.359C273.995 184.164 274.312 184.006 274.693 183.885C275.073 183.76 275.473 183.697 275.892 183.697C276.428 183.697 276.86 183.793 277.188 183.983C277.517 184.169 277.757 184.484 277.908 184.929C278.059 185.374 278.135 185.979 278.135 186.744V188.041C278.135 188.343 278.148 188.594 278.174 188.793C278.204 188.987 278.269 189.134 278.368 189.234C278.472 189.329 278.636 189.376 278.861 189.376H278.978L278.796 190.31H278.705C278.329 190.31 278.038 190.273 277.83 190.2C277.627 190.126 277.471 190.02 277.363 189.882C277.255 189.744 277.158 189.575 277.072 189.376C276.834 189.653 276.553 189.878 276.229 190.05C275.905 190.223 275.537 190.31 275.127 190.31ZM275.347 189.376C275.658 189.376 275.959 189.298 276.248 189.143C276.542 188.987 276.782 188.78 276.968 188.521V187.004C276.35 187.025 275.849 187.086 275.464 187.185C275.084 187.284 274.805 187.434 274.628 187.632C274.451 187.831 274.362 188.088 274.362 188.404C274.362 188.745 274.453 188.994 274.634 189.149C274.82 189.301 275.058 189.376 275.347 189.376ZM281.943 190.31C281.541 190.31 281.219 190.236 280.977 190.089C280.735 189.942 280.558 189.754 280.445 189.525C280.337 189.292 280.283 189.048 280.283 188.793V184.735H279.194L279.298 183.827H280.283V182.258L281.45 182.142V183.827H283.123V184.735H281.45V188.08C281.45 188.486 281.474 188.78 281.521 188.961C281.569 189.143 281.686 189.257 281.871 189.305C282.062 189.352 282.366 189.376 282.785 189.376H283.084L282.993 190.31H281.943ZM287.116 190.31C286.368 190.31 285.739 190.156 285.229 189.849C284.72 189.543 284.333 189.136 284.069 188.631C283.81 188.121 283.68 187.561 283.68 186.952C283.68 186.36 283.801 185.817 284.043 185.325C284.29 184.832 284.644 184.439 285.106 184.145C285.573 183.847 286.135 183.697 286.792 183.697C287.319 183.697 287.788 183.803 288.199 184.015C288.613 184.223 288.938 184.527 289.171 184.929C289.409 185.327 289.527 185.811 289.527 186.381C289.527 186.472 289.523 186.571 289.514 186.679C289.51 186.783 289.497 186.891 289.476 187.004H284.873C284.929 187.591 285.07 188.049 285.294 188.378C285.519 188.706 285.802 188.938 286.144 189.072C286.485 189.206 286.857 189.272 287.259 189.272C287.552 189.272 287.859 189.242 288.179 189.182C288.499 189.121 288.801 189.026 289.087 188.897L289.242 189.817C288.996 189.925 288.696 190.035 288.341 190.148C287.987 190.256 287.578 190.31 287.116 190.31ZM284.977 186.2H288.322C288.322 185.902 288.265 185.642 288.153 185.422C288.041 185.201 287.87 185.033 287.641 184.916C287.412 184.795 287.12 184.735 286.766 184.735C286.247 184.735 285.847 184.864 285.567 185.124C285.29 185.379 285.093 185.737 284.977 186.2ZM293.219 190.31C292.679 190.31 292.19 190.163 291.754 189.869C291.317 189.575 290.969 189.18 290.71 188.683C290.455 188.186 290.328 187.63 290.328 187.017C290.328 186.433 290.444 185.889 290.678 185.383C290.915 184.877 291.25 184.471 291.682 184.164C292.115 183.853 292.627 183.697 293.219 183.697C293.642 183.697 294.051 183.79 294.444 183.976C294.842 184.158 295.164 184.462 295.41 184.89L295.164 185.059V180.456H296.331V190.18H295.293L295.073 188.832L295.371 189.039C295.185 189.458 294.894 189.776 294.496 189.992C294.098 190.204 293.673 190.31 293.219 190.31ZM293.426 189.272C293.72 189.272 294.01 189.197 294.295 189.046C294.585 188.894 294.822 188.654 295.008 188.326C295.198 187.993 295.293 187.557 295.293 187.017C295.293 186.515 295.198 186.096 295.008 185.759C294.822 185.418 294.585 185.163 294.295 184.994C294.01 184.821 293.72 184.735 293.426 184.735C293.029 184.735 292.687 184.834 292.402 185.033C292.117 185.232 291.899 185.504 291.747 185.85C291.596 186.191 291.52 186.58 291.52 187.017C291.52 187.427 291.596 187.803 291.747 188.145C291.899 188.486 292.117 188.76 292.402 188.968C292.687 189.171 293.029 189.272 293.426 189.272ZM302.609 190.31C302.048 190.31 301.581 190.243 301.209 190.109C300.842 189.975 300.583 189.856 300.431 189.752L300.574 188.624C300.712 188.745 300.956 188.884 301.306 189.039C301.657 189.195 302.074 189.272 302.558 189.272C302.968 189.272 303.282 189.203 303.498 189.065C303.718 188.927 303.828 188.732 303.828 188.482C303.828 188.261 303.757 188.084 303.614 187.95C303.476 187.812 303.307 187.704 303.109 187.626C302.914 187.544 302.731 187.479 302.558 187.431C302.268 187.354 301.968 187.256 301.657 187.14C301.35 187.019 301.09 186.839 300.879 186.602C300.667 186.364 300.561 186.031 300.561 185.603C300.561 185.279 300.639 184.972 300.794 184.683C300.95 184.389 301.203 184.151 301.553 183.97C301.903 183.788 302.367 183.697 302.947 183.697C303.37 183.697 303.714 183.743 303.977 183.834C304.245 183.92 304.476 184.013 304.671 184.112L304.528 185.175C304.343 185.02 304.126 184.888 303.88 184.78C303.634 184.672 303.331 184.618 302.973 184.618C302.609 184.618 302.313 184.687 302.084 184.825C301.855 184.959 301.741 185.175 301.741 185.474C301.741 185.772 301.862 185.984 302.104 186.109C302.35 186.234 302.722 186.373 303.219 186.524C303.374 186.567 303.554 186.63 303.757 186.712C303.964 186.794 304.165 186.904 304.36 187.042C304.554 187.181 304.714 187.362 304.84 187.587C304.969 187.807 305.034 188.084 305.034 188.417C305.034 188.698 304.967 188.985 304.833 189.279C304.699 189.569 304.457 189.813 304.107 190.012C303.757 190.21 303.258 190.31 302.609 190.31ZM309.223 190.31C308.475 190.31 307.846 190.156 307.336 189.849C306.826 189.543 306.439 189.136 306.176 188.631C305.916 188.121 305.787 187.561 305.787 186.952C305.787 186.36 305.908 185.817 306.15 185.325C306.396 184.832 306.751 184.439 307.213 184.145C307.68 183.847 308.242 183.697 308.898 183.697C309.426 183.697 309.895 183.803 310.305 184.015C310.72 184.223 311.044 184.527 311.278 184.929C311.515 185.327 311.634 185.811 311.634 186.381C311.634 186.472 311.63 186.571 311.621 186.679C311.617 186.783 311.604 186.891 311.582 187.004H306.98C307.036 187.591 307.176 188.049 307.401 188.378C307.626 188.706 307.909 188.938 308.25 189.072C308.592 189.206 308.963 189.272 309.365 189.272C309.659 189.272 309.966 189.242 310.286 189.182C310.606 189.121 310.908 189.026 311.193 188.897L311.349 189.817C311.102 189.925 310.802 190.035 310.448 190.148C310.093 190.256 309.685 190.31 309.223 190.31ZM307.083 186.2H310.428C310.428 185.902 310.372 185.642 310.26 185.422C310.147 185.201 309.977 185.033 309.748 184.916C309.519 184.795 309.227 184.735 308.872 184.735C308.354 184.735 307.954 184.864 307.673 185.124C307.397 185.379 307.2 185.737 307.083 186.2ZM314.444 190.31C314.033 190.31 313.707 190.236 313.465 190.089C313.227 189.938 313.057 189.746 312.953 189.512C312.849 189.279 312.797 189.035 312.797 188.78V180.456H313.964V188.106C313.964 188.469 313.988 188.741 314.035 188.922C314.083 189.104 314.178 189.225 314.321 189.285C314.468 189.346 314.69 189.376 314.988 189.376L314.82 190.31H314.444ZM316.315 190.18V184.735H315.213L315.369 183.827H316.315V182.323C316.315 181.757 316.466 181.305 316.769 180.968C317.071 180.627 317.517 180.456 318.104 180.456C318.32 180.456 318.508 180.471 318.668 180.502C318.833 180.532 318.982 180.573 319.116 180.625L318.934 181.61C318.83 181.571 318.729 181.543 318.629 181.526C318.53 181.504 318.415 181.493 318.286 181.493C318.035 181.493 317.839 181.565 317.696 181.707C317.553 181.846 317.482 182.077 317.482 182.401V183.827H319.193V184.735H317.482V190.18H316.315Z" fill="white"/>
<rect x="141.299" y="120.299" width="197.401" height="87.4012" stroke="white" stroke-width="0.598831"/>
<line x1="159.85" y1="120" x2="159.85" y2="208" stroke="white" stroke-width="0.698636"/>
<path d="M120.206 249.24C119.081 249.24 118.149 249.026 117.412 248.597C116.68 248.163 116.135 247.548 115.774 246.754C115.414 245.954 115.234 245.005 115.234 243.908V236.999H116.863V243.462C116.863 244.011 116.906 244.542 116.992 245.057C117.077 245.571 117.235 246.031 117.463 246.437C117.698 246.843 118.035 247.166 118.475 247.406C118.921 247.646 119.498 247.766 120.206 247.766C120.921 247.766 121.498 247.646 121.938 247.406C122.378 247.166 122.712 246.843 122.941 246.437C123.175 246.025 123.335 245.562 123.421 245.048C123.507 244.534 123.55 244.005 123.55 243.462V236.999H125.178V243.908C125.178 245.005 124.998 245.954 124.638 246.754C124.278 247.548 123.73 248.163 122.992 248.597C122.261 249.026 121.332 249.24 120.206 249.24ZM127.184 249V240.599H128.385L128.693 242.211L128.093 241.954C128.659 241.325 129.21 240.913 129.748 240.719C130.29 240.525 130.819 240.428 131.333 240.428C132.562 240.428 133.439 240.782 133.965 241.491C134.497 242.199 134.762 243.159 134.762 244.371V249H133.219V244.371C133.219 243.479 133.054 242.828 132.722 242.416C132.391 242.005 131.825 241.799 131.025 241.799C130.459 241.799 129.939 241.925 129.465 242.176C128.996 242.422 128.687 242.816 128.539 243.359L128.727 242.416V249H127.184ZM138.922 249.171C138.379 249.171 137.947 249.074 137.627 248.88C137.313 248.68 137.087 248.426 136.95 248.117C136.813 247.808 136.744 247.486 136.744 247.148V236.141H138.287V246.257C138.287 246.737 138.319 247.097 138.382 247.337C138.444 247.577 138.57 247.737 138.759 247.817C138.953 247.897 139.247 247.937 139.642 247.937L139.419 249.171H138.922ZM144.758 249.171C143.77 249.171 142.938 248.969 142.264 248.563C141.589 248.157 141.078 247.62 140.729 246.951C140.386 246.277 140.215 245.537 140.215 244.731C140.215 243.948 140.375 243.231 140.695 242.579C141.021 241.928 141.489 241.408 142.101 241.019C142.718 240.625 143.461 240.428 144.33 240.428C145.027 240.428 145.647 240.568 146.19 240.848C146.739 241.122 147.167 241.525 147.476 242.056C147.79 242.582 147.947 243.222 147.947 243.977C147.947 244.097 147.942 244.228 147.93 244.371C147.924 244.508 147.907 244.651 147.879 244.8H141.792C141.867 245.577 142.052 246.183 142.35 246.617C142.647 247.051 143.021 247.357 143.473 247.534C143.924 247.711 144.416 247.8 144.947 247.8C145.336 247.8 145.741 247.76 146.164 247.68C146.587 247.6 146.987 247.474 147.364 247.303L147.57 248.52C147.244 248.663 146.847 248.809 146.379 248.957C145.91 249.1 145.37 249.171 144.758 249.171ZM141.93 243.737H146.353C146.353 243.342 146.279 242.999 146.13 242.708C145.981 242.416 145.756 242.194 145.453 242.039C145.15 241.879 144.764 241.799 144.295 241.799C143.61 241.799 143.081 241.971 142.71 242.314C142.344 242.651 142.084 243.125 141.93 243.737ZM151.457 249.171C150.937 249.171 150.483 249.066 150.094 248.854C149.706 248.643 149.403 248.354 149.185 247.988C148.974 247.623 148.868 247.206 148.868 246.737C148.868 246.263 148.971 245.857 149.177 245.52C149.388 245.177 149.668 244.894 150.017 244.671C150.371 244.442 150.766 244.262 151.2 244.131C151.634 243.994 152.083 243.897 152.546 243.839C153.014 243.777 153.463 243.742 153.892 243.737C153.892 242.936 153.735 242.414 153.42 242.168C153.106 241.922 152.652 241.799 152.057 241.799C151.743 241.799 151.406 241.848 151.046 241.945C150.691 242.042 150.291 242.245 149.846 242.554L149.623 241.302C149.96 241.045 150.38 240.836 150.883 240.676C151.386 240.511 151.914 240.428 152.469 240.428C153.177 240.428 153.749 240.553 154.183 240.805C154.617 241.051 154.935 241.468 155.135 242.056C155.335 242.645 155.435 243.445 155.435 244.457V246.171C155.435 246.571 155.452 246.903 155.486 247.166C155.526 247.423 155.612 247.617 155.743 247.748C155.88 247.874 156.098 247.937 156.395 247.937H156.549L156.309 249.171H156.189C155.692 249.171 155.306 249.123 155.032 249.026C154.763 248.929 154.557 248.789 154.415 248.606C154.272 248.423 154.143 248.2 154.029 247.937C153.715 248.303 153.343 248.6 152.914 248.829C152.486 249.057 152 249.171 151.457 249.171ZM151.749 247.937C152.16 247.937 152.557 247.834 152.94 247.628C153.329 247.423 153.646 247.148 153.892 246.805V244.8C153.074 244.828 152.412 244.908 151.903 245.04C151.4 245.171 151.031 245.368 150.797 245.631C150.563 245.894 150.446 246.234 150.446 246.651C150.446 247.103 150.566 247.431 150.806 247.637C151.051 247.837 151.366 247.937 151.749 247.937ZM157.74 249V240.599H159.009L159.197 241.988C159.626 241.456 160.035 241.065 160.423 240.813C160.818 240.556 161.238 240.428 161.683 240.428C161.826 240.428 161.958 240.445 162.078 240.479L161.923 242.176C161.849 242.159 161.769 242.148 161.683 242.142C161.603 242.131 161.512 242.125 161.409 242.125C160.963 242.125 160.552 242.225 160.175 242.425C159.803 242.619 159.54 242.834 159.386 243.068V249H157.74ZM163.165 249V240.599H164.365L164.674 242.211L164.074 241.954C164.639 241.325 165.191 240.913 165.728 240.719C166.271 240.525 166.8 240.428 167.314 240.428C168.543 240.428 169.42 240.782 169.946 241.491C170.477 242.199 170.743 243.159 170.743 244.371V249H169.2V244.371C169.2 243.479 169.034 242.828 168.703 242.416C168.371 242.005 167.805 241.799 167.005 241.799C166.439 241.799 165.919 241.925 165.445 242.176C164.976 242.422 164.668 242.816 164.519 243.359L164.708 242.416V249H163.165ZM172.553 249V247.183H174.405V249H172.553ZM180.485 249V236.999H184.376C185.211 236.999 185.939 237.127 186.562 237.384C187.185 237.642 187.668 238.039 188.011 238.576C188.354 239.113 188.525 239.805 188.525 240.651C188.525 241.473 188.345 242.162 187.985 242.716C187.631 243.271 187.114 243.708 186.434 244.028L189.126 249H187.137L184.702 244.319C184.685 244.319 184.671 244.319 184.659 244.319C184.648 244.319 184.634 244.319 184.616 244.319H182.199V249H180.485ZM182.199 242.862H184.359C185.177 242.862 185.791 242.665 186.202 242.271C186.62 241.876 186.828 241.336 186.828 240.651C186.828 239.953 186.62 239.413 186.202 239.03C185.791 238.647 185.177 238.456 184.359 238.456H182.199V242.862ZM194.2 249.171C193.211 249.171 192.38 248.969 191.706 248.563C191.031 248.157 190.52 247.62 190.171 246.951C189.828 246.277 189.657 245.537 189.657 244.731C189.657 243.948 189.817 243.231 190.137 242.579C190.463 241.928 190.931 241.408 191.543 241.019C192.16 240.625 192.903 240.428 193.771 240.428C194.469 240.428 195.089 240.568 195.632 240.848C196.18 241.122 196.609 241.525 196.918 242.056C197.232 242.582 197.389 243.222 197.389 243.977C197.389 244.097 197.383 244.228 197.372 244.371C197.366 244.508 197.349 244.651 197.32 244.8H191.234C191.308 245.577 191.494 246.183 191.791 246.617C192.088 247.051 192.463 247.357 192.914 247.534C193.366 247.711 193.857 247.8 194.389 247.8C194.777 247.8 195.183 247.76 195.606 247.68C196.029 247.6 196.429 247.474 196.806 247.303L197.012 248.52C196.686 248.663 196.289 248.809 195.82 248.957C195.352 249.1 194.812 249.171 194.2 249.171ZM191.371 243.737H195.795C195.795 243.342 195.72 242.999 195.572 242.708C195.423 242.416 195.197 242.194 194.894 242.039C194.592 241.879 194.206 241.799 193.737 241.799C193.051 241.799 192.523 241.971 192.151 242.314C191.786 242.651 191.526 243.125 191.371 243.737ZM201.105 249.171C200.562 249.171 200.13 249.074 199.81 248.88C199.496 248.68 199.27 248.426 199.133 248.117C198.996 247.808 198.927 247.486 198.927 247.148V236.141H200.47V246.257C200.47 246.737 200.502 247.097 200.565 247.337C200.627 247.577 200.753 247.737 200.942 247.817C201.136 247.897 201.43 247.937 201.825 247.937L201.602 249.171H201.105ZM206.941 249.171C205.953 249.171 205.121 248.969 204.447 248.563C203.773 248.157 203.261 247.62 202.912 246.951C202.57 246.277 202.398 245.537 202.398 244.731C202.398 243.948 202.558 243.231 202.878 242.579C203.204 241.928 203.673 241.408 204.284 241.019C204.901 240.625 205.644 240.428 206.513 240.428C207.21 240.428 207.83 240.568 208.373 240.848C208.922 241.122 209.35 241.525 209.659 242.056C209.973 242.582 210.13 243.222 210.13 243.977C210.13 244.097 210.125 244.228 210.113 244.371C210.107 244.508 210.09 244.651 210.062 244.8H203.975C204.05 245.577 204.235 246.183 204.533 246.617C204.83 247.051 205.204 247.357 205.656 247.534C206.107 247.711 206.599 247.8 207.13 247.8C207.519 247.8 207.924 247.76 208.347 247.68C208.77 247.6 209.17 247.474 209.547 247.303L209.753 248.52C209.427 248.663 209.03 248.809 208.562 248.957C208.093 249.1 207.553 249.171 206.941 249.171ZM204.113 243.737H208.536C208.536 243.342 208.462 242.999 208.313 242.708C208.164 242.416 207.939 242.194 207.636 242.039C207.333 241.879 206.947 241.799 206.479 241.799C205.793 241.799 205.264 241.971 204.893 242.314C204.527 242.651 204.267 243.125 204.113 243.737ZM213.64 249.171C213.12 249.171 212.666 249.066 212.277 248.854C211.889 248.643 211.586 248.354 211.369 247.988C211.157 247.623 211.051 247.206 211.051 246.737C211.051 246.263 211.154 245.857 211.36 245.52C211.571 245.177 211.851 244.894 212.2 244.671C212.554 244.442 212.949 244.262 213.383 244.131C213.817 243.994 214.266 243.897 214.729 243.839C215.197 243.777 215.646 243.742 216.075 243.737C216.075 242.936 215.918 242.414 215.603 242.168C215.289 241.922 214.835 241.799 214.24 241.799C213.926 241.799 213.589 241.848 213.229 241.945C212.874 242.042 212.474 242.245 212.029 242.554L211.806 241.302C212.143 241.045 212.563 240.836 213.066 240.676C213.569 240.511 214.097 240.428 214.652 240.428C215.36 240.428 215.932 240.553 216.366 240.805C216.801 241.051 217.118 241.468 217.318 242.056C217.518 242.645 217.618 243.445 217.618 244.457V246.171C217.618 246.571 217.635 246.903 217.669 247.166C217.709 247.423 217.795 247.617 217.926 247.748C218.064 247.874 218.281 247.937 218.578 247.937H218.732L218.492 249.171H218.372C217.875 249.171 217.489 249.123 217.215 249.026C216.946 248.929 216.741 248.789 216.598 248.606C216.455 248.423 216.326 248.2 216.212 247.937C215.898 248.303 215.526 248.6 215.097 248.829C214.669 249.057 214.183 249.171 213.64 249.171ZM213.932 247.937C214.343 247.937 214.74 247.834 215.123 247.628C215.512 247.423 215.829 247.148 216.075 246.805V244.8C215.257 244.828 214.595 244.908 214.086 245.04C213.583 245.171 213.214 245.368 212.98 245.631C212.746 245.894 212.629 246.234 212.629 246.651C212.629 247.103 212.749 247.431 212.989 247.637C213.234 247.837 213.549 247.937 213.932 247.937ZM219.923 249V240.599H221.192L221.38 241.988C221.809 241.456 222.218 241.065 222.606 240.813C223.001 240.556 223.421 240.428 223.866 240.428C224.009 240.428 224.141 240.445 224.261 240.479L224.106 242.176C224.032 242.159 223.952 242.148 223.866 242.142C223.786 242.131 223.695 242.125 223.592 242.125C223.146 242.125 222.735 242.225 222.358 242.425C221.986 242.619 221.723 242.834 221.569 243.068V249H219.923ZM225.348 249V240.599H226.548L226.857 242.211L226.257 241.954C226.822 241.325 227.374 240.913 227.911 240.719C228.454 240.525 228.983 240.428 229.497 240.428C230.726 240.428 231.603 240.782 232.129 241.491C232.66 242.199 232.926 243.159 232.926 244.371V249H231.383V244.371C231.383 243.479 231.217 242.828 230.886 242.416C230.554 242.005 229.988 241.799 229.188 241.799C228.623 241.799 228.102 241.925 227.628 242.176C227.159 242.422 226.851 242.816 226.702 243.359L226.891 242.416V249H225.348ZM234.736 249V247.183H236.588V249H234.736ZM245.342 249V243.805L241.107 236.999H242.959L246.525 242.828H245.771L249.337 236.999H251.189L246.971 243.805V249H245.342ZM254.282 249.171C253.402 249.171 252.65 248.977 252.027 248.589C251.41 248.194 250.936 247.668 250.604 247.011C250.279 246.348 250.116 245.611 250.116 244.8C250.116 243.988 250.279 243.254 250.604 242.596C250.936 241.934 251.41 241.408 252.027 241.019C252.65 240.625 253.402 240.428 254.282 240.428C255.156 240.428 255.905 240.625 256.528 241.019C257.151 241.408 257.625 241.934 257.951 242.596C258.282 243.254 258.448 243.988 258.448 244.8C258.448 245.611 258.282 246.348 257.951 247.011C257.625 247.668 257.151 248.194 256.528 248.589C255.905 248.977 255.156 249.171 254.282 249.171ZM254.282 247.8C255.116 247.8 255.756 247.537 256.202 247.011C256.648 246.48 256.871 245.743 256.871 244.8C256.871 243.857 256.648 243.122 256.202 242.596C255.756 242.065 255.116 241.799 254.282 241.799C253.453 241.799 252.813 242.065 252.362 242.596C251.916 243.122 251.693 243.857 251.693 244.8C251.693 245.743 251.916 246.48 252.362 247.011C252.813 247.537 253.453 247.8 254.282 247.8ZM263.057 249.171C262.399 249.171 261.839 249.04 261.376 248.777C260.913 248.509 260.559 248.103 260.313 247.56C260.073 247.017 259.953 246.325 259.953 245.485V240.599H261.496V245.057C261.496 245.948 261.648 246.628 261.951 247.097C262.259 247.566 262.759 247.8 263.451 247.8C263.925 247.8 264.365 247.686 264.771 247.457C265.177 247.228 265.457 246.863 265.611 246.36L265.388 247.2V240.599H266.931V249H265.56L265.251 247.354L265.663 247.628C265.383 248.148 265.04 248.537 264.634 248.794C264.234 249.046 263.708 249.171 263.057 249.171ZM269.03 249V240.599H270.299L270.487 241.988C270.916 241.456 271.325 241.065 271.713 240.813C272.107 240.556 272.528 240.428 272.973 240.428C273.116 240.428 273.248 240.445 273.368 240.479L273.213 242.176C273.139 242.159 273.059 242.148 272.973 242.142C272.893 242.131 272.802 242.125 272.699 242.125C272.253 242.125 271.842 242.225 271.465 242.425C271.093 242.619 270.83 242.834 270.676 243.068V249H269.03ZM278.306 249V240.599H279.506L279.814 242.211L279.214 241.954C279.78 241.325 280.332 240.913 280.869 240.719C281.412 240.525 281.94 240.428 282.455 240.428C283.683 240.428 284.561 240.782 285.086 241.491C285.618 242.199 285.884 243.159 285.884 244.371V249H284.341V244.371C284.341 243.479 284.175 242.828 283.843 242.416C283.512 242.005 282.946 241.799 282.146 241.799C281.58 241.799 281.06 241.925 280.586 242.176C280.117 242.422 279.809 242.816 279.66 243.359L279.849 242.416V249H278.306ZM291.912 249.171C290.923 249.171 290.091 248.969 289.417 248.563C288.743 248.157 288.231 247.62 287.882 246.951C287.54 246.277 287.368 245.537 287.368 244.731C287.368 243.948 287.528 243.231 287.848 242.579C288.174 241.928 288.643 241.408 289.254 241.019C289.871 240.625 290.614 240.428 291.483 240.428C292.18 240.428 292.8 240.568 293.343 240.848C293.892 241.122 294.32 241.525 294.629 242.056C294.943 242.582 295.1 243.222 295.1 243.977C295.1 244.097 295.095 244.228 295.083 244.371C295.078 244.508 295.06 244.651 295.032 244.8H288.945C289.02 245.577 289.205 246.183 289.503 246.617C289.8 247.051 290.174 247.357 290.626 247.534C291.077 247.711 291.569 247.8 292.1 247.8C292.489 247.8 292.894 247.76 293.317 247.68C293.74 247.6 294.14 247.474 294.517 247.303L294.723 248.52C294.397 248.663 294 248.809 293.532 248.957C293.063 249.1 292.523 249.171 291.912 249.171ZM289.083 243.737H293.506C293.506 243.342 293.432 242.999 293.283 242.708C293.134 242.416 292.909 242.194 292.606 242.039C292.303 241.879 291.917 241.799 291.449 241.799C290.763 241.799 290.234 241.971 289.863 242.314C289.497 242.651 289.237 243.125 289.083 243.737ZM298.336 249L295.816 240.599H297.633L299.245 247.303L301.028 240.856H302.622L304.422 247.303L306.034 240.599H307.851L305.314 249H303.582L301.833 242.794L300.068 249H298.336ZM312.93 249V240.599H314.199L314.387 241.988C314.816 241.456 315.224 241.065 315.613 240.813C316.007 240.556 316.427 240.428 316.873 240.428C317.016 240.428 317.147 240.445 317.267 240.479L317.113 242.176C317.039 242.159 316.959 242.148 316.873 242.142C316.793 242.131 316.702 242.125 316.599 242.125C316.153 242.125 315.742 242.225 315.364 242.425C314.993 242.619 314.73 242.834 314.576 243.068V249H312.93ZM321.806 249.171C320.926 249.171 320.174 248.977 319.551 248.589C318.934 248.194 318.46 247.668 318.128 247.011C317.803 246.348 317.64 245.611 317.64 244.8C317.64 243.988 317.803 243.254 318.128 242.596C318.46 241.934 318.934 241.408 319.551 241.019C320.174 240.625 320.926 240.428 321.806 240.428C322.68 240.428 323.429 240.625 324.052 241.019C324.675 241.408 325.149 241.934 325.475 242.596C325.806 243.254 325.972 243.988 325.972 244.8C325.972 245.611 325.806 246.348 325.475 247.011C325.149 247.668 324.675 248.194 324.052 248.589C323.429 248.977 322.68 249.171 321.806 249.171ZM321.806 247.8C322.64 247.8 323.28 247.537 323.726 247.011C324.172 246.48 324.395 245.743 324.395 244.8C324.395 243.857 324.172 243.122 323.726 242.596C323.28 242.065 322.64 241.799 321.806 241.799C320.977 241.799 320.337 242.065 319.886 242.596C319.44 243.122 319.217 243.857 319.217 244.8C319.217 245.743 319.44 246.48 319.886 247.011C320.337 247.537 320.977 247.8 321.806 247.8ZM330.581 249.171C329.923 249.171 329.363 249.04 328.9 248.777C328.437 248.509 328.083 248.103 327.837 247.56C327.597 247.017 327.477 246.325 327.477 245.485V240.599H329.02V245.057C329.02 245.948 329.172 246.628 329.475 247.097C329.783 247.566 330.283 247.8 330.975 247.8C331.449 247.8 331.889 247.686 332.295 247.457C332.701 247.228 332.981 246.863 333.135 246.36L332.912 247.2V240.599H334.455V249H333.084L332.775 247.354L333.187 247.628C332.907 248.148 332.564 248.537 332.158 248.794C331.758 249.046 331.232 249.171 330.581 249.171ZM339.451 249.171C338.92 249.171 338.494 249.074 338.174 248.88C337.854 248.686 337.62 248.437 337.471 248.134C337.328 247.826 337.257 247.503 337.257 247.166V241.799H335.817L335.954 240.599H337.257V238.525L338.8 238.37V240.599H341.012V241.799H338.8V246.223C338.8 246.76 338.831 247.148 338.894 247.388C338.957 247.628 339.111 247.78 339.357 247.843C339.609 247.906 340.012 247.937 340.566 247.937H340.96L340.84 249.171H339.451ZM342.33 249V240.599H343.873V249H342.33ZM342.33 238.713V236.999H343.873V238.713H342.33ZM345.964 249V240.599H347.164L347.472 242.211L346.872 241.954C347.438 241.325 347.989 240.913 348.527 240.719C349.07 240.525 349.598 240.428 350.113 240.428C351.341 240.428 352.218 240.782 352.744 241.491C353.276 242.199 353.541 243.159 353.541 244.371V249H351.998V244.371C351.998 243.479 351.833 242.828 351.501 242.416C351.17 242.005 350.604 241.799 349.804 241.799C349.238 241.799 348.718 241.925 348.244 242.176C347.775 242.422 347.467 242.816 347.318 243.359L347.507 242.416V249H345.964ZM359.569 249.171C358.581 249.171 357.749 248.969 357.075 248.563C356.401 248.157 355.889 247.62 355.54 246.951C355.198 246.277 355.026 245.537 355.026 244.731C355.026 243.948 355.186 243.231 355.506 242.579C355.832 241.928 356.301 241.408 356.912 241.019C357.529 240.625 358.272 240.428 359.141 240.428C359.838 240.428 360.458 240.568 361.001 240.848C361.55 241.122 361.978 241.525 362.287 242.056C362.601 242.582 362.758 243.222 362.758 243.977C362.758 244.097 362.753 244.228 362.741 244.371C362.736 244.508 362.718 244.651 362.69 244.8H356.603C356.678 245.577 356.863 246.183 357.161 246.617C357.458 247.051 357.832 247.357 358.284 247.534C358.735 247.711 359.227 247.8 359.758 247.8C360.147 247.8 360.552 247.76 360.975 247.68C361.398 247.6 361.798 247.474 362.175 247.303L362.381 248.52C362.055 248.663 361.658 248.809 361.19 248.957C360.721 249.1 360.181 249.171 359.569 249.171ZM356.741 243.737H361.164C361.164 243.342 361.09 242.999 360.941 242.708C360.792 242.416 360.567 242.194 360.264 242.039C359.961 241.879 359.575 241.799 359.107 241.799C358.421 241.799 357.892 241.971 357.521 242.314C357.155 242.651 356.895 243.125 356.741 243.737ZM364.125 249V247.183H365.977V249H364.125Z" fill="white"/>
</svg>
