<svg width="500" height="500" viewBox="0 0 500 500" fill="none" xmlns="http://www.w3.org/2000/svg">
<rect width="500" height="500" fill="#391F17"/>
<path d="M195.033 210.682V217.32H189.525V227.204C189.525 228.384 189.722 229.253 190.115 229.811C190.509 230.335 191.23 230.597 192.279 230.597H195.033V236.351C194.246 236.613 193.23 236.826 191.984 236.99C190.738 237.154 189.656 237.236 188.738 237.236C185.854 237.236 183.624 236.711 182.051 235.662C180.51 234.613 179.739 232.827 179.739 230.302V217.32H176.101V210.682H180.133L182.247 202.814H189.525V210.682H195.033ZM212.998 210.091C217.752 210.091 221.374 211.206 223.866 213.435C226.39 215.665 227.652 219.074 227.652 223.664V225.336H208.179C208.179 227.204 208.589 228.614 209.408 229.565C210.261 230.515 211.589 230.991 213.392 230.991C215.031 230.991 216.227 230.647 216.981 229.958C217.768 229.27 218.162 228.352 218.162 227.204H227.652C227.652 230.351 226.456 232.81 224.063 234.581C221.669 236.351 218.178 237.236 213.588 237.236C208.769 237.236 205.032 236.121 202.376 233.892C199.721 231.63 198.393 228.221 198.393 223.664C198.393 219.205 199.688 215.829 202.278 213.534C204.868 211.239 208.441 210.091 212.998 210.091ZM213.392 216.337C210.31 216.337 208.589 217.796 208.228 220.713H217.768C217.768 219.369 217.375 218.304 216.588 217.517C215.834 216.73 214.769 216.337 213.392 216.337ZM245.207 210.091C249.174 210.091 252.403 210.764 254.895 212.108C257.386 213.419 258.632 215.566 258.632 218.55V228.68C258.632 229.237 258.763 229.696 259.026 230.056C259.288 230.417 259.681 230.597 260.206 230.597H261.976V236.252C261.878 236.318 261.615 236.433 261.189 236.597C260.796 236.728 260.222 236.859 259.468 236.99C258.714 237.154 257.845 237.236 256.862 237.236C254.96 237.236 253.387 236.957 252.141 236.4C250.928 235.81 250.092 235.007 249.633 233.99C248.387 234.974 246.994 235.761 245.453 236.351C243.912 236.941 242.109 237.236 240.044 237.236C233.946 237.236 230.897 234.81 230.897 229.958C230.897 227.434 231.57 225.516 232.914 224.205C234.291 222.861 236.258 221.943 238.815 221.451C241.372 220.959 244.716 220.713 248.846 220.713V219.435C248.846 218.418 248.486 217.648 247.764 217.123C247.076 216.599 246.174 216.337 245.06 216.337C244.044 216.337 243.158 216.517 242.404 216.878C241.683 217.238 241.323 217.812 241.323 218.599V218.795H231.684C231.651 218.631 231.635 218.402 231.635 218.107C231.635 215.648 232.799 213.698 235.127 212.255C237.487 210.813 240.847 210.091 245.207 210.091ZM248.846 225.336C246.06 225.336 243.994 225.647 242.65 226.27C241.339 226.86 240.683 227.663 240.683 228.68C240.683 230.319 241.798 231.138 244.027 231.138C245.306 231.138 246.42 230.794 247.371 230.106C248.355 229.417 248.846 228.565 248.846 227.549V225.336ZM288.776 202.814H302.25L290.104 216.73L302.496 236.646H289.661L282.629 224.254L276.728 229.073V236.646H265.86V202.814H276.728V217.271L288.776 202.814ZM306.479 207.633V200.994H316.265V207.633H306.479ZM306.479 236.646V210.682H316.265V236.646H306.479ZM339.82 210.682V217.32H334.313V227.204C334.313 228.384 334.509 229.253 334.903 229.811C335.296 230.335 336.017 230.597 337.066 230.597H339.82V236.351C339.033 236.613 338.017 236.826 336.771 236.99C335.526 237.154 334.444 237.236 333.526 237.236C330.641 237.236 328.412 236.711 326.838 235.662C325.297 234.613 324.527 232.827 324.527 230.302V217.32H320.888V210.682H324.92L327.035 202.814H334.313V210.682H339.82Z" fill="white"/>
<path d="M185.307 255.667C184.847 255.667 184.478 255.583 184.201 255.415C183.923 255.246 183.72 255.031 183.592 254.769C183.468 254.501 183.406 254.221 183.406 253.929V249.279H182.158L182.277 248.239H183.406V246.442L184.743 246.308V248.239H186.659V249.279H184.743V253.112C184.743 253.578 184.77 253.914 184.825 254.122C184.879 254.33 185.013 254.462 185.226 254.516C185.444 254.57 185.793 254.598 186.273 254.598H186.615L186.511 255.667H185.307ZM190.923 255.667C190.161 255.667 189.509 255.499 188.97 255.162C188.435 254.821 188.024 254.365 187.737 253.796C187.454 253.221 187.313 252.582 187.313 251.879C187.313 251.176 187.454 250.54 187.737 249.97C188.024 249.396 188.435 248.94 188.97 248.603C189.509 248.262 190.161 248.091 190.923 248.091C191.681 248.091 192.33 248.262 192.869 248.603C193.409 248.94 193.82 249.396 194.102 249.97C194.39 250.54 194.533 251.176 194.533 251.879C194.533 252.582 194.39 253.221 194.102 253.796C193.82 254.365 193.409 254.821 192.869 255.162C192.33 255.499 191.681 255.667 190.923 255.667ZM190.923 254.479C191.646 254.479 192.201 254.251 192.587 253.796C192.973 253.335 193.166 252.696 193.166 251.879C193.166 251.062 192.973 250.426 192.587 249.97C192.201 249.51 191.646 249.279 190.923 249.279C190.205 249.279 189.65 249.51 189.259 249.97C188.873 250.426 188.68 251.062 188.68 251.879C188.68 252.696 188.873 253.335 189.259 253.796C189.65 254.251 190.205 254.479 190.923 254.479ZM199.798 259.114L201.477 255.192L198.446 248.239H199.932L202.205 253.647L204.255 248.239H205.741L201.284 259.114H199.798ZM209.783 255.667C209.021 255.667 208.369 255.499 207.83 255.162C207.295 254.821 206.884 254.365 206.597 253.796C206.314 253.221 206.173 252.582 206.173 251.879C206.173 251.176 206.314 250.54 206.597 249.97C206.884 249.396 207.295 248.94 207.83 248.603C208.369 248.262 209.021 248.091 209.783 248.091C210.541 248.091 211.19 248.262 211.729 248.603C212.269 248.94 212.68 249.396 212.962 249.97C213.25 250.54 213.393 251.176 213.393 251.879C213.393 252.582 213.25 253.221 212.962 253.796C212.68 254.365 212.269 254.821 211.729 255.162C211.19 255.499 210.541 255.667 209.783 255.667ZM209.783 254.479C210.506 254.479 211.061 254.251 211.447 253.796C211.833 253.335 212.026 252.696 212.026 251.879C212.026 251.062 211.833 250.426 211.447 249.97C211.061 249.51 210.506 249.279 209.783 249.279C209.065 249.279 208.511 249.51 208.119 249.97C207.733 250.426 207.54 251.062 207.54 251.879C207.54 252.696 207.733 253.335 208.119 253.796C208.511 254.251 209.065 254.479 209.783 254.479ZM217.387 255.667C216.817 255.667 216.332 255.553 215.931 255.326C215.53 255.093 215.223 254.741 215.01 254.271C214.802 253.8 214.698 253.201 214.698 252.473V248.239H216.035V252.102C216.035 252.874 216.166 253.464 216.428 253.87C216.696 254.276 217.129 254.479 217.728 254.479C218.139 254.479 218.521 254.38 218.872 254.182C219.224 253.984 219.466 253.667 219.6 253.231L219.407 253.959V248.239H220.744V255.519H219.556L219.288 254.093L219.645 254.33C219.402 254.781 219.105 255.118 218.753 255.341C218.407 255.558 217.951 255.667 217.387 255.667ZM222.563 255.519V248.239H223.662L223.825 249.443C224.197 248.982 224.551 248.643 224.888 248.425C225.229 248.202 225.593 248.091 225.979 248.091C226.103 248.091 226.217 248.106 226.321 248.135L226.187 249.606C226.123 249.591 226.054 249.581 225.979 249.576C225.91 249.567 225.831 249.562 225.742 249.562C225.355 249.562 224.999 249.648 224.672 249.822C224.35 249.99 224.122 250.176 223.989 250.379V255.519H222.563ZM233.482 255.667C232.863 255.667 232.303 255.499 231.803 255.162C231.303 254.826 230.904 254.372 230.607 253.803C230.315 253.233 230.169 252.597 230.169 251.894C230.169 251.225 230.303 250.601 230.57 250.022C230.842 249.443 231.226 248.977 231.721 248.626C232.217 248.269 232.803 248.091 233.482 248.091C233.967 248.091 234.435 248.197 234.886 248.41C235.341 248.618 235.71 248.967 235.993 249.458L235.71 249.651V244.377H237.047V255.519H235.859L235.606 253.974L235.948 254.211C235.735 254.692 235.401 255.056 234.945 255.303C234.49 255.546 234.002 255.667 233.482 255.667ZM233.72 254.479C234.056 254.479 234.388 254.392 234.715 254.219C235.047 254.046 235.319 253.771 235.532 253.394C235.75 253.013 235.859 252.513 235.859 251.894C235.859 251.32 235.75 250.839 235.532 250.453C235.319 250.062 235.047 249.77 234.715 249.576C234.388 249.378 234.056 249.279 233.72 249.279C233.264 249.279 232.873 249.393 232.546 249.621C232.219 249.849 231.969 250.161 231.796 250.557C231.622 250.948 231.536 251.394 231.536 251.894C231.536 252.364 231.622 252.795 231.796 253.186C231.969 253.578 232.219 253.892 232.546 254.13C232.873 254.363 233.264 254.479 233.72 254.479ZM242.331 255.667C241.475 255.667 240.754 255.492 240.17 255.14C239.586 254.788 239.142 254.323 238.84 253.744C238.543 253.159 238.395 252.518 238.395 251.82C238.395 251.141 238.533 250.52 238.811 249.955C239.093 249.391 239.499 248.94 240.029 248.603C240.564 248.262 241.207 248.091 241.96 248.091C242.564 248.091 243.101 248.212 243.572 248.455C244.047 248.692 244.419 249.042 244.686 249.502C244.958 249.958 245.095 250.512 245.095 251.166C245.095 251.27 245.09 251.384 245.08 251.508C245.075 251.627 245.06 251.75 245.035 251.879H239.761C239.826 252.553 239.987 253.077 240.244 253.454C240.502 253.83 240.826 254.095 241.217 254.249C241.608 254.402 242.034 254.479 242.495 254.479C242.832 254.479 243.183 254.444 243.55 254.375C243.916 254.306 244.263 254.197 244.589 254.048L244.768 255.103C244.485 255.227 244.141 255.353 243.735 255.482C243.329 255.605 242.861 255.667 242.331 255.667ZM239.88 250.958H243.713C243.713 250.616 243.649 250.319 243.52 250.067C243.391 249.814 243.196 249.621 242.933 249.487C242.671 249.349 242.336 249.279 241.93 249.279C241.336 249.279 240.878 249.428 240.556 249.725C240.239 250.017 240.014 250.428 239.88 250.958ZM249.785 255.667C248.963 255.667 248.272 255.501 247.712 255.17C247.158 254.833 246.737 254.382 246.45 253.818C246.167 253.248 246.026 252.617 246.026 251.924C246.026 251.201 246.163 250.549 246.435 249.97C246.712 249.391 247.136 248.933 247.705 248.596C248.275 248.259 249.002 248.091 249.889 248.091C250.27 248.091 250.629 248.13 250.966 248.21C251.308 248.284 251.612 248.388 251.88 248.522L251.672 249.695C251.399 249.567 251.11 249.465 250.803 249.391C250.5 249.316 250.186 249.279 249.859 249.279C249.057 249.279 248.445 249.507 248.024 249.963C247.604 250.418 247.393 251.052 247.393 251.864C247.393 252.657 247.594 253.293 247.995 253.773C248.396 254.254 249.007 254.494 249.829 254.494C250.166 254.494 250.488 254.454 250.795 254.375C251.107 254.296 251.404 254.187 251.686 254.048L251.865 255.118C251.667 255.256 251.377 255.383 250.996 255.497C250.614 255.61 250.211 255.667 249.785 255.667ZM254.882 255.667C254.431 255.667 254.038 255.576 253.701 255.393C253.364 255.209 253.102 254.959 252.914 254.642C252.73 254.325 252.639 253.964 252.639 253.558C252.639 253.147 252.728 252.795 252.906 252.503C253.089 252.206 253.332 251.961 253.634 251.768C253.941 251.57 254.283 251.414 254.659 251.3C255.035 251.181 255.424 251.097 255.825 251.047C256.231 250.993 256.62 250.963 256.992 250.958C256.992 250.265 256.855 249.812 256.583 249.599C256.311 249.386 255.917 249.279 255.402 249.279C255.13 249.279 254.837 249.321 254.525 249.406C254.218 249.49 253.872 249.666 253.486 249.933L253.292 248.848C253.585 248.626 253.949 248.445 254.384 248.306C254.82 248.163 255.278 248.091 255.758 248.091C256.373 248.091 256.868 248.2 257.244 248.418C257.62 248.631 257.895 248.992 258.069 249.502C258.242 250.012 258.329 250.705 258.329 251.582V253.068C258.329 253.414 258.343 253.701 258.373 253.929C258.408 254.152 258.482 254.32 258.596 254.434C258.715 254.543 258.903 254.598 259.16 254.598H259.294L259.086 255.667H258.982C258.551 255.667 258.217 255.625 257.979 255.541C257.747 255.457 257.568 255.336 257.445 255.177C257.321 255.019 257.209 254.826 257.11 254.598C256.838 254.915 256.516 255.172 256.145 255.37C255.773 255.568 255.352 255.667 254.882 255.667ZM255.135 254.598C255.491 254.598 255.835 254.509 256.167 254.33C256.504 254.152 256.779 253.914 256.992 253.617V251.879C256.283 251.904 255.709 251.973 255.268 252.087C254.832 252.201 254.513 252.372 254.31 252.6C254.107 252.827 254.005 253.122 254.005 253.484C254.005 253.875 254.109 254.159 254.317 254.338C254.53 254.511 254.803 254.598 255.135 254.598ZM260.759 255.519V249.279H259.496L259.674 248.239H260.759V246.516C260.759 245.867 260.932 245.35 261.279 244.964C261.625 244.572 262.135 244.377 262.809 244.377C263.056 244.377 263.272 244.394 263.455 244.429C263.643 244.464 263.814 244.511 263.968 244.57L263.76 245.699C263.641 245.654 263.524 245.622 263.411 245.602C263.297 245.578 263.165 245.565 263.017 245.565C262.73 245.565 262.504 245.647 262.341 245.81C262.178 245.969 262.096 246.234 262.096 246.605V248.239H264.057V249.279H262.096V255.519H260.759ZM265.677 255.519V249.279H264.414L264.592 248.239H265.677V246.516C265.677 245.867 265.85 245.35 266.197 244.964C266.543 244.572 267.054 244.377 267.727 244.377C267.975 244.377 268.19 244.394 268.373 244.429C268.561 244.464 268.732 244.511 268.886 244.57L268.678 245.699C268.559 245.654 268.443 245.622 268.329 245.602C268.215 245.578 268.084 245.565 267.935 245.565C267.648 245.565 267.422 245.647 267.259 245.81C267.096 245.969 267.014 246.234 267.014 246.605V248.239H268.975V249.279H267.014V255.519H265.677ZM273.436 255.667C272.579 255.667 271.859 255.492 271.274 255.14C270.69 254.788 270.247 254.323 269.945 253.744C269.648 253.159 269.499 252.518 269.499 251.82C269.499 251.141 269.638 250.52 269.915 249.955C270.197 249.391 270.603 248.94 271.133 248.603C271.668 248.262 272.312 248.091 273.065 248.091C273.669 248.091 274.206 248.212 274.676 248.455C275.152 248.692 275.523 249.042 275.791 249.502C276.063 249.958 276.199 250.512 276.199 251.166C276.199 251.27 276.194 251.384 276.184 251.508C276.179 251.627 276.165 251.75 276.14 251.879H270.866C270.93 252.553 271.091 253.077 271.349 253.454C271.606 253.83 271.931 254.095 272.322 254.249C272.713 254.402 273.139 254.479 273.599 254.479C273.936 254.479 274.288 254.444 274.654 254.375C275.021 254.306 275.367 254.197 275.694 254.048L275.872 255.103C275.59 255.227 275.246 255.353 274.84 255.482C274.434 255.605 273.966 255.667 273.436 255.667ZM270.985 250.958H274.818C274.818 250.616 274.753 250.319 274.624 250.067C274.496 249.814 274.3 249.621 274.038 249.487C273.775 249.349 273.441 249.279 273.035 249.279C272.441 249.279 271.983 249.428 271.661 249.725C271.344 250.017 271.118 250.428 270.985 250.958ZM277.547 255.519V248.239H278.884V255.519H277.547ZM277.547 246.605V245.12H278.884V246.605H277.547ZM280.695 255.519V248.239H281.735L282.002 249.636L281.482 249.413C281.973 248.868 282.451 248.512 282.916 248.343C283.386 248.175 283.845 248.091 284.29 248.091C285.355 248.091 286.115 248.398 286.571 249.012C287.031 249.626 287.261 250.458 287.261 251.508V255.519H285.924V251.508C285.924 250.735 285.781 250.171 285.494 249.814C285.206 249.458 284.716 249.279 284.023 249.279C283.533 249.279 283.082 249.388 282.671 249.606C282.265 249.819 281.997 250.161 281.869 250.631L282.032 249.814V255.519H280.695ZM290.687 255.667C290.236 255.667 289.843 255.576 289.506 255.393C289.169 255.209 288.907 254.959 288.719 254.642C288.535 254.325 288.444 253.964 288.444 253.558C288.444 253.147 288.533 252.795 288.711 252.503C288.894 252.206 289.137 251.961 289.439 251.768C289.746 251.57 290.088 251.414 290.464 251.3C290.841 251.181 291.229 251.097 291.63 251.047C292.036 250.993 292.425 250.963 292.797 250.958C292.797 250.265 292.66 249.812 292.388 249.599C292.116 249.386 291.722 249.279 291.207 249.279C290.935 249.279 290.643 249.321 290.331 249.406C290.024 249.49 289.677 249.666 289.291 249.933L289.097 248.848C289.39 248.626 289.754 248.445 290.189 248.306C290.625 248.163 291.083 248.091 291.564 248.091C292.178 248.091 292.673 248.2 293.049 248.418C293.426 248.631 293.7 248.992 293.874 249.502C294.047 250.012 294.134 250.705 294.134 251.582V253.068C294.134 253.414 294.149 253.701 294.178 253.929C294.213 254.152 294.287 254.32 294.401 254.434C294.52 254.543 294.708 254.598 294.966 254.598H295.099L294.891 255.667H294.787C294.356 255.667 294.022 255.625 293.785 255.541C293.552 255.457 293.374 255.336 293.25 255.177C293.126 255.019 293.015 254.826 292.915 254.598C292.643 254.915 292.321 255.172 291.95 255.37C291.578 255.568 291.158 255.667 290.687 255.667ZM290.94 254.598C291.296 254.598 291.64 254.509 291.972 254.33C292.309 254.152 292.584 253.914 292.797 253.617V251.879C292.088 251.904 291.514 251.973 291.073 252.087C290.638 252.201 290.318 252.372 290.115 252.6C289.912 252.827 289.811 253.122 289.811 253.484C289.811 253.875 289.915 254.159 290.123 254.338C290.335 254.511 290.608 254.598 290.94 254.598ZM298.497 255.667C298.036 255.667 297.667 255.583 297.39 255.415C297.113 255.246 296.91 255.031 296.781 254.769C296.657 254.501 296.595 254.221 296.595 253.929V249.279H295.347L295.466 248.239H296.595V246.442L297.932 246.308V248.239H299.849V249.279H297.932V253.112C297.932 253.578 297.96 253.914 298.014 254.122C298.069 254.33 298.202 254.462 298.415 254.516C298.633 254.57 298.982 254.598 299.463 254.598H299.804L299.7 255.667H298.497ZM304.425 255.667C303.568 255.667 302.847 255.492 302.263 255.14C301.679 254.788 301.235 254.323 300.933 253.744C300.636 253.159 300.488 252.518 300.488 251.82C300.488 251.141 300.626 250.52 300.904 249.955C301.186 249.391 301.592 248.94 302.122 248.603C302.657 248.262 303.3 248.091 304.053 248.091C304.657 248.091 305.195 248.212 305.665 248.455C306.14 248.692 306.512 249.042 306.779 249.502C307.052 249.958 307.188 250.512 307.188 251.166C307.188 251.27 307.183 251.384 307.173 251.508C307.168 251.627 307.153 251.75 307.128 251.879H301.854C301.919 252.553 302.08 253.077 302.337 253.454C302.595 253.83 302.919 254.095 303.31 254.249C303.702 254.402 304.127 254.479 304.588 254.479C304.925 254.479 305.276 254.444 305.643 254.375C306.009 254.306 306.356 254.197 306.683 254.048L306.861 255.103C306.579 255.227 306.234 255.353 305.828 255.482C305.422 255.605 304.954 255.667 304.425 255.667ZM301.973 250.958H305.806C305.806 250.616 305.742 250.319 305.613 250.067C305.484 249.814 305.289 249.621 305.026 249.487C304.764 249.349 304.429 249.279 304.023 249.279C303.429 249.279 302.971 249.428 302.649 249.725C302.332 250.017 302.107 250.428 301.973 250.958ZM311.417 255.667C310.798 255.667 310.239 255.499 309.739 255.162C309.239 254.826 308.84 254.372 308.543 253.803C308.251 253.233 308.105 252.597 308.105 251.894C308.105 251.225 308.238 250.601 308.506 250.022C308.778 249.443 309.162 248.977 309.657 248.626C310.152 248.269 310.739 248.091 311.417 248.091C311.903 248.091 312.371 248.197 312.821 248.41C313.277 248.618 313.646 248.967 313.928 249.458L313.646 249.651V244.377H314.983V255.519H313.794L313.542 253.974L313.884 254.211C313.671 254.692 313.336 255.056 312.881 255.303C312.425 255.546 311.937 255.667 311.417 255.667ZM311.655 254.479C311.992 254.479 312.324 254.392 312.651 254.219C312.982 254.046 313.255 253.771 313.468 253.394C313.685 253.013 313.794 252.513 313.794 251.894C313.794 251.32 313.685 250.839 313.468 250.453C313.255 250.062 312.982 249.77 312.651 249.576C312.324 249.378 311.992 249.279 311.655 249.279C311.2 249.279 310.808 249.393 310.482 249.621C310.155 249.849 309.905 250.161 309.731 250.557C309.558 250.948 309.471 251.394 309.471 251.894C309.471 252.364 309.558 252.795 309.731 253.186C309.905 253.578 310.155 253.892 310.482 254.13C310.808 254.363 311.2 254.479 311.655 254.479ZM322.178 255.667C321.534 255.667 320.999 255.591 320.573 255.437C320.152 255.284 319.855 255.147 319.682 255.029L319.845 253.736C320.004 253.875 320.283 254.033 320.685 254.211C321.086 254.39 321.564 254.479 322.118 254.479C322.589 254.479 322.948 254.4 323.195 254.241C323.448 254.083 323.574 253.86 323.574 253.573C323.574 253.32 323.492 253.117 323.329 252.964C323.17 252.805 322.977 252.681 322.75 252.592C322.527 252.498 322.316 252.424 322.118 252.369C321.786 252.28 321.442 252.169 321.086 252.035C320.734 251.896 320.437 251.691 320.194 251.419C319.952 251.146 319.83 250.765 319.83 250.275C319.83 249.903 319.919 249.552 320.098 249.22C320.276 248.883 320.566 248.611 320.967 248.403C321.368 248.195 321.9 248.091 322.564 248.091C323.049 248.091 323.443 248.143 323.745 248.247C324.052 248.346 324.317 248.452 324.54 248.566L324.376 249.784C324.163 249.606 323.916 249.455 323.633 249.331C323.351 249.208 323.005 249.146 322.594 249.146C322.178 249.146 321.838 249.225 321.576 249.383C321.313 249.537 321.182 249.784 321.182 250.126C321.182 250.468 321.321 250.71 321.598 250.854C321.88 250.998 322.306 251.156 322.876 251.329C323.054 251.379 323.26 251.451 323.492 251.545C323.73 251.639 323.96 251.765 324.183 251.924C324.406 252.082 324.589 252.29 324.733 252.548C324.881 252.8 324.956 253.117 324.956 253.498C324.956 253.82 324.879 254.15 324.725 254.486C324.572 254.818 324.295 255.098 323.893 255.326C323.492 255.553 322.92 255.667 322.178 255.667ZM329.755 255.667C328.898 255.667 328.178 255.492 327.593 255.14C327.009 254.788 326.566 254.323 326.264 253.744C325.967 253.159 325.818 252.518 325.818 251.82C325.818 251.141 325.957 250.52 326.234 249.955C326.516 249.391 326.923 248.94 327.452 248.603C327.987 248.262 328.631 248.091 329.384 248.091C329.988 248.091 330.525 248.212 330.996 248.455C331.471 248.692 331.842 249.042 332.11 249.502C332.382 249.958 332.518 250.512 332.518 251.166C332.518 251.27 332.513 251.384 332.503 251.508C332.498 251.627 332.484 251.75 332.459 251.879H327.185C327.249 252.553 327.41 253.077 327.668 253.454C327.925 253.83 328.25 254.095 328.641 254.249C329.032 254.402 329.458 254.479 329.918 254.479C330.255 254.479 330.607 254.444 330.973 254.375C331.34 254.306 331.686 254.197 332.013 254.048L332.191 255.103C331.909 255.227 331.565 255.353 331.159 255.482C330.753 255.605 330.285 255.667 329.755 255.667ZM327.304 250.958H331.137C331.137 250.616 331.072 250.319 330.944 250.067C330.815 249.814 330.619 249.621 330.357 249.487C330.094 249.349 329.76 249.279 329.354 249.279C328.76 249.279 328.302 249.428 327.98 249.725C327.663 250.017 327.438 250.428 327.304 250.958ZM335.738 255.667C335.267 255.667 334.893 255.583 334.616 255.415C334.344 255.241 334.148 255.021 334.029 254.754C333.911 254.486 333.851 254.207 333.851 253.914V244.377H335.188V253.142C335.188 253.558 335.215 253.87 335.27 254.078C335.324 254.286 335.433 254.424 335.597 254.494C335.765 254.563 336.02 254.598 336.362 254.598L336.169 255.667H335.738ZM337.882 255.519V249.279H336.619L336.797 248.239H337.882V246.516C337.882 245.867 338.055 245.35 338.402 244.964C338.749 244.572 339.259 244.377 339.932 244.377C340.18 244.377 340.395 244.394 340.578 244.429C340.766 244.464 340.937 244.511 341.091 244.57L340.883 245.699C340.764 245.654 340.648 245.622 340.534 245.602C340.42 245.578 340.289 245.565 340.14 245.565C339.853 245.565 339.627 245.647 339.464 245.81C339.301 245.969 339.219 246.234 339.219 246.605V248.239H341.18V249.279H339.219V255.519H337.882Z" fill="white"/>
<rect x="137.343" y="176.343" width="226.189" height="100.147" stroke="white" stroke-width="0.686161"/>
<line x1="158.599" y1="176" x2="158.599" y2="276.833" stroke="white" stroke-width="0.800521"/>
<path d="M112.111 320.108C110.821 320.108 109.754 319.863 108.909 319.372C108.071 318.874 107.446 318.17 107.033 317.26C106.621 316.343 106.414 315.256 106.414 313.999V306.082H108.281V313.488C108.281 314.117 108.33 314.726 108.428 315.315C108.526 315.904 108.706 316.432 108.968 316.896C109.237 317.361 109.623 317.731 110.127 318.006C110.638 318.281 111.299 318.419 112.111 318.419C112.93 318.419 113.591 318.281 114.096 318.006C114.6 317.731 114.983 317.361 115.245 316.896C115.513 316.425 115.697 315.895 115.795 315.305C115.893 314.716 115.942 314.11 115.942 313.488V306.082H117.809V313.999C117.809 315.256 117.602 316.343 117.19 317.26C116.777 318.17 116.149 318.874 115.304 319.372C114.466 319.863 113.401 320.108 112.111 320.108ZM120.107 319.833V310.207H121.482L121.836 312.054L121.148 311.759C121.797 311.039 122.429 310.567 123.044 310.345C123.666 310.122 124.272 310.011 124.861 310.011C126.269 310.011 127.274 310.417 127.877 311.229C128.486 312.041 128.79 313.141 128.79 314.529V319.833H127.022V314.529C127.022 313.508 126.832 312.761 126.452 312.29C126.073 311.818 125.424 311.582 124.508 311.582C123.859 311.582 123.263 311.727 122.72 312.015C122.183 312.296 121.829 312.748 121.659 313.37L121.875 312.29V319.833H120.107ZM133.556 320.03C132.934 320.03 132.439 319.919 132.073 319.696C131.713 319.467 131.454 319.175 131.297 318.822C131.14 318.468 131.061 318.098 131.061 317.712V305.1H132.829V316.69C132.829 317.24 132.865 317.653 132.937 317.928C133.009 318.203 133.153 318.386 133.369 318.478C133.592 318.57 133.929 318.615 134.381 318.615L134.126 320.03H133.556ZM140.244 320.03C139.111 320.03 138.158 319.797 137.386 319.332C136.613 318.867 136.027 318.252 135.627 317.486C135.235 316.713 135.038 315.865 135.038 314.942C135.038 314.045 135.221 313.223 135.588 312.476C135.961 311.73 136.498 311.134 137.199 310.689C137.906 310.237 138.758 310.011 139.753 310.011C140.552 310.011 141.262 310.171 141.884 310.492C142.513 310.807 143.004 311.268 143.358 311.877C143.718 312.48 143.898 313.213 143.898 314.077C143.898 314.215 143.891 314.366 143.878 314.529C143.872 314.686 143.852 314.85 143.819 315.02H136.845C136.931 315.911 137.143 316.605 137.484 317.103C137.824 317.6 138.253 317.951 138.771 318.154C139.288 318.357 139.851 318.458 140.46 318.458C140.905 318.458 141.37 318.412 141.855 318.321C142.339 318.229 142.798 318.085 143.23 317.889L143.466 319.283C143.093 319.447 142.637 319.614 142.1 319.784C141.563 319.948 140.945 320.03 140.244 320.03ZM137.003 313.802H142.071C142.071 313.351 141.986 312.958 141.816 312.624C141.645 312.29 141.387 312.034 141.04 311.858C140.693 311.674 140.251 311.582 139.714 311.582C138.928 311.582 138.322 311.779 137.896 312.172C137.477 312.558 137.179 313.102 137.003 313.802ZM147.92 320.03C147.324 320.03 146.803 319.909 146.358 319.666C145.913 319.424 145.566 319.093 145.317 318.674C145.074 318.255 144.953 317.777 144.953 317.24C144.953 316.697 145.071 316.232 145.307 315.845C145.549 315.453 145.87 315.128 146.269 314.873C146.675 314.611 147.127 314.405 147.625 314.254C148.123 314.097 148.637 313.986 149.167 313.92C149.704 313.848 150.218 313.809 150.709 313.802C150.709 312.886 150.529 312.286 150.169 312.005C149.809 311.723 149.288 311.582 148.607 311.582C148.247 311.582 147.861 311.638 147.448 311.749C147.042 311.861 146.584 312.093 146.073 312.447L145.818 311.013C146.204 310.718 146.685 310.479 147.262 310.296C147.838 310.106 148.444 310.011 149.079 310.011C149.891 310.011 150.546 310.155 151.043 310.443C151.541 310.725 151.904 311.203 152.134 311.877C152.363 312.552 152.477 313.468 152.477 314.627V316.592C152.477 317.05 152.497 317.43 152.536 317.731C152.582 318.026 152.68 318.249 152.831 318.399C152.988 318.543 153.237 318.615 153.577 318.615H153.754L153.479 320.03H153.342C152.772 320.03 152.33 319.974 152.016 319.863C151.708 319.752 151.472 319.591 151.308 319.382C151.145 319.172 150.997 318.917 150.866 318.615C150.506 319.034 150.081 319.375 149.589 319.637C149.098 319.899 148.542 320.03 147.92 320.03ZM148.254 318.615C148.725 318.615 149.18 318.498 149.619 318.262C150.064 318.026 150.428 317.712 150.709 317.319V315.02C149.773 315.053 149.013 315.145 148.43 315.295C147.854 315.446 147.432 315.672 147.163 315.973C146.895 316.274 146.761 316.664 146.761 317.142C146.761 317.659 146.898 318.036 147.173 318.272C147.455 318.501 147.815 318.615 148.254 318.615ZM155.119 319.833V310.207H156.573L156.789 311.799C157.28 311.19 157.748 310.741 158.193 310.453C158.645 310.158 159.126 310.011 159.637 310.011C159.801 310.011 159.952 310.031 160.089 310.07L159.912 312.015C159.827 311.995 159.735 311.982 159.637 311.975C159.546 311.962 159.441 311.956 159.323 311.956C158.812 311.956 158.341 312.07 157.909 312.3C157.483 312.522 157.182 312.768 157.005 313.036V319.833H155.119ZM161.335 319.833V310.207H162.71L163.063 312.054L162.376 311.759C163.024 311.039 163.656 310.567 164.272 310.345C164.894 310.122 165.499 310.011 166.089 310.011C167.497 310.011 168.502 310.417 169.104 311.229C169.713 312.041 170.018 313.141 170.018 314.529V319.833H168.25V314.529C168.25 313.508 168.06 312.761 167.68 312.29C167.3 311.818 166.652 311.582 165.735 311.582C165.087 311.582 164.491 311.727 163.947 312.015C163.411 312.296 163.057 312.748 162.887 313.37L163.103 312.29V319.833H161.335ZM172.092 319.833V317.751H174.214V319.833H172.092ZM181.18 319.833V306.082H185.64C186.596 306.082 187.431 306.229 188.144 306.524C188.858 306.819 189.412 307.274 189.804 307.889C190.197 308.505 190.394 309.297 190.394 310.266C190.394 311.209 190.187 311.998 189.775 312.633C189.369 313.269 188.776 313.77 187.997 314.136L191.081 319.833H188.803L186.013 314.47C185.993 314.47 185.977 314.47 185.964 314.47C185.951 314.47 185.934 314.47 185.915 314.47H183.145V319.833H181.18ZM183.145 312.8H185.62C186.556 312.8 187.26 312.575 187.732 312.123C188.21 311.671 188.449 311.052 188.449 310.266C188.449 309.467 188.21 308.849 187.732 308.41C187.26 307.971 186.556 307.752 185.62 307.752H183.145V312.8ZM196.896 320.03C195.763 320.03 194.81 319.797 194.038 319.332C193.265 318.867 192.679 318.252 192.279 317.486C191.886 316.713 191.69 315.865 191.69 314.942C191.69 314.045 191.873 313.223 192.24 312.476C192.613 311.73 193.15 311.134 193.851 310.689C194.558 310.237 195.409 310.011 196.405 310.011C197.204 310.011 197.914 310.171 198.536 310.492C199.165 310.807 199.656 311.268 200.01 311.877C200.37 312.48 200.55 313.213 200.55 314.077C200.55 314.215 200.543 314.366 200.53 314.529C200.524 314.686 200.504 314.85 200.471 315.02H193.497C193.582 315.911 193.795 316.605 194.136 317.103C194.476 317.6 194.905 317.951 195.423 318.154C195.94 318.357 196.503 318.458 197.112 318.458C197.557 318.458 198.022 318.412 198.507 318.321C198.991 318.229 199.45 318.085 199.882 317.889L200.118 319.283C199.744 319.447 199.289 319.614 198.752 319.784C198.215 319.948 197.597 320.03 196.896 320.03ZM193.655 313.802H198.723C198.723 313.351 198.638 312.958 198.468 312.624C198.297 312.29 198.039 312.034 197.692 311.858C197.345 311.674 196.902 311.582 196.366 311.582C195.58 311.582 194.974 311.779 194.548 312.172C194.129 312.558 193.831 313.102 193.655 313.802ZM204.807 320.03C204.185 320.03 203.691 319.919 203.324 319.696C202.964 319.467 202.705 319.175 202.548 318.822C202.391 318.468 202.312 318.098 202.312 317.712V305.1H204.08V316.69C204.08 317.24 204.116 317.653 204.189 317.928C204.261 318.203 204.405 318.386 204.621 318.478C204.843 318.57 205.181 318.615 205.632 318.615L205.377 320.03H204.807ZM211.495 320.03C210.363 320.03 209.41 319.797 208.637 319.332C207.864 318.867 207.278 318.252 206.879 317.486C206.486 316.713 206.289 315.865 206.289 314.942C206.289 314.045 206.473 313.223 206.84 312.476C207.213 311.73 207.75 311.134 208.45 310.689C209.158 310.237 210.009 310.011 211.004 310.011C211.803 310.011 212.514 310.171 213.136 310.492C213.764 310.807 214.256 311.268 214.609 311.877C214.969 312.48 215.149 313.213 215.149 314.077C215.149 314.215 215.143 314.366 215.13 314.529C215.123 314.686 215.104 314.85 215.071 315.02H208.097C208.182 315.911 208.395 316.605 208.735 317.103C209.076 317.6 209.505 317.951 210.022 318.154C210.539 318.357 211.102 318.458 211.711 318.458C212.157 318.458 212.622 318.412 213.106 318.321C213.591 318.229 214.049 318.085 214.481 317.889L214.717 319.283C214.344 319.447 213.889 319.614 213.352 319.784C212.815 319.948 212.196 320.03 211.495 320.03ZM208.254 313.802H213.322C213.322 313.351 213.237 312.958 213.067 312.624C212.897 312.29 212.638 312.034 212.291 311.858C211.944 311.674 211.502 311.582 210.965 311.582C210.179 311.582 209.573 311.779 209.148 312.172C208.729 312.558 208.431 313.102 208.254 313.802ZM219.171 320.03C218.575 320.03 218.055 319.909 217.609 319.666C217.164 319.424 216.817 319.093 216.568 318.674C216.326 318.255 216.205 317.777 216.205 317.24C216.205 316.697 216.323 316.232 216.558 315.845C216.801 315.453 217.121 315.128 217.521 314.873C217.927 314.611 218.379 314.405 218.876 314.254C219.374 314.097 219.888 313.986 220.418 313.92C220.955 313.848 221.47 313.809 221.961 313.802C221.961 312.886 221.781 312.286 221.42 312.005C221.06 311.723 220.54 311.582 219.859 311.582C219.498 311.582 219.112 311.638 218.7 311.749C218.294 311.861 217.835 312.093 217.324 312.447L217.069 311.013C217.455 310.718 217.937 310.479 218.513 310.296C219.089 310.106 219.695 310.011 220.33 310.011C221.142 310.011 221.797 310.155 222.295 310.443C222.792 310.725 223.156 311.203 223.385 311.877C223.614 312.552 223.729 313.468 223.729 314.627V316.592C223.729 317.05 223.748 317.43 223.788 317.731C223.833 318.026 223.932 318.249 224.082 318.399C224.239 318.543 224.488 318.615 224.829 318.615H225.006L224.731 320.03H224.593C224.023 320.03 223.581 319.974 223.267 319.863C222.959 319.752 222.724 319.591 222.56 319.382C222.396 319.172 222.249 318.917 222.118 318.615C221.758 319.034 221.332 319.375 220.841 319.637C220.35 319.899 219.793 320.03 219.171 320.03ZM219.505 318.615C219.976 318.615 220.432 318.498 220.87 318.262C221.316 318.026 221.679 317.712 221.961 317.319V315.02C221.024 315.053 220.265 315.145 219.682 315.295C219.106 315.446 218.683 315.672 218.415 315.973C218.146 316.274 218.012 316.664 218.012 317.142C218.012 317.659 218.15 318.036 218.425 318.272C218.706 318.501 219.066 318.615 219.505 318.615ZM226.37 319.833V310.207H227.824L228.04 311.799C228.531 311.19 228.999 310.741 229.445 310.453C229.897 310.158 230.378 310.011 230.889 310.011C231.052 310.011 231.203 310.031 231.34 310.07L231.164 312.015C231.079 311.995 230.987 311.982 230.889 311.975C230.797 311.962 230.692 311.956 230.574 311.956C230.064 311.956 229.592 312.07 229.16 312.3C228.734 312.522 228.433 312.768 228.256 313.036V319.833H226.37ZM232.586 319.833V310.207H233.961L234.315 312.054L233.627 311.759C234.276 311.039 234.907 310.567 235.523 310.345C236.145 310.122 236.751 310.011 237.34 310.011C238.748 310.011 239.753 310.417 240.356 311.229C240.965 312.041 241.269 313.141 241.269 314.529V319.833H239.501V314.529C239.501 313.508 239.311 312.761 238.931 312.29C238.552 311.818 237.903 311.582 236.987 311.582C236.338 311.582 235.742 311.727 235.199 312.015C234.662 312.296 234.308 312.748 234.138 313.37L234.354 312.29V319.833H232.586ZM243.344 319.833V317.751H245.465V319.833H243.344ZM255.496 319.833V313.881L250.644 306.082H252.766L256.852 312.761H255.987L260.074 306.082H262.195L257.363 313.881V319.833H255.496ZM265.74 320.03C264.731 320.03 263.87 319.807 263.156 319.362C262.449 318.91 261.906 318.308 261.526 317.555C261.153 316.795 260.966 315.95 260.966 315.02C260.966 314.09 261.153 313.249 261.526 312.496C261.906 311.736 262.449 311.134 263.156 310.689C263.87 310.237 264.731 310.011 265.74 310.011C266.741 310.011 267.599 310.237 268.313 310.689C269.027 311.134 269.57 311.736 269.944 312.496C270.323 313.249 270.513 314.09 270.513 315.02C270.513 315.95 270.323 316.795 269.944 317.555C269.57 318.308 269.027 318.91 268.313 319.362C267.599 319.807 266.741 320.03 265.74 320.03ZM265.74 318.458C266.696 318.458 267.429 318.157 267.94 317.555C268.451 316.946 268.706 316.101 268.706 315.02C268.706 313.94 268.451 313.098 267.94 312.496C267.429 311.887 266.696 311.582 265.74 311.582C264.79 311.582 264.057 311.887 263.539 312.496C263.029 313.098 262.773 313.94 262.773 315.02C262.773 316.101 263.029 316.946 263.539 317.555C264.057 318.157 264.79 318.458 265.74 318.458ZM275.794 320.03C275.041 320.03 274.399 319.879 273.869 319.578C273.338 319.27 272.932 318.805 272.651 318.183C272.376 317.561 272.238 316.769 272.238 315.806V310.207H274.006V315.315C274.006 316.337 274.18 317.116 274.527 317.653C274.88 318.19 275.453 318.458 276.246 318.458C276.789 318.458 277.294 318.327 277.758 318.065C278.223 317.803 278.544 317.384 278.721 316.808L278.466 317.771V310.207H280.234V319.833H278.662L278.309 317.947L278.78 318.262C278.459 318.858 278.066 319.303 277.601 319.598C277.143 319.886 276.54 320.03 275.794 320.03ZM282.639 319.833V310.207H284.092L284.308 311.799C284.8 311.19 285.268 310.741 285.713 310.453C286.165 310.158 286.646 310.011 287.157 310.011C287.321 310.011 287.471 310.031 287.609 310.07L287.432 312.015C287.347 311.995 287.255 311.982 287.157 311.975C287.065 311.962 286.96 311.956 286.843 311.956C286.332 311.956 285.86 312.07 285.428 312.3C285.003 312.522 284.701 312.768 284.524 313.036V319.833H282.639ZM293.267 319.833V310.207H294.642L294.996 312.054L294.308 311.759C294.956 311.039 295.588 310.567 296.204 310.345C296.826 310.122 297.432 310.011 298.021 310.011C299.429 310.011 300.434 310.417 301.036 311.229C301.645 312.041 301.95 313.141 301.95 314.529V319.833H300.182V314.529C300.182 313.508 299.992 312.761 299.612 312.29C299.232 311.818 298.584 311.582 297.667 311.582C297.019 311.582 296.423 311.727 295.88 312.015C295.343 312.296 294.989 312.748 294.819 313.37L295.035 312.29V319.833H293.267ZM308.857 320.03C307.724 320.03 306.771 319.797 305.999 319.332C305.226 318.867 304.64 318.252 304.24 317.486C303.847 316.713 303.651 315.865 303.651 314.942C303.651 314.045 303.834 313.223 304.201 312.476C304.574 311.73 305.111 311.134 305.812 310.689C306.519 310.237 307.37 310.011 308.366 310.011C309.165 310.011 309.875 310.171 310.497 310.492C311.126 310.807 311.617 311.268 311.971 311.877C312.331 312.48 312.511 313.213 312.511 314.077C312.511 314.215 312.504 314.366 312.491 314.529C312.485 314.686 312.465 314.85 312.432 315.02H305.458C305.543 315.911 305.756 316.605 306.097 317.103C306.437 317.6 306.866 317.951 307.384 318.154C307.901 318.357 308.464 318.458 309.073 318.458C309.518 318.458 309.983 318.412 310.468 318.321C310.952 318.229 311.411 318.085 311.843 317.889L312.079 319.283C311.705 319.447 311.25 319.614 310.713 319.784C310.176 319.948 309.558 320.03 308.857 320.03ZM305.616 313.802H310.684C310.684 313.351 310.599 312.958 310.429 312.624C310.258 312.29 310 312.034 309.653 311.858C309.305 311.674 308.863 311.582 308.327 311.582C307.541 311.582 306.935 311.779 306.509 312.172C306.09 312.558 305.792 313.102 305.616 313.802ZM316.218 319.833L313.33 310.207H315.413L317.259 317.889L319.303 310.502H321.13L323.192 317.889L325.039 310.207H327.121L324.214 319.833H322.23L320.226 312.722L318.202 319.833H316.218ZM332.94 319.833V310.207H334.394L334.61 311.799C335.101 311.19 335.57 310.741 336.015 310.453C336.467 310.158 336.948 310.011 337.459 310.011C337.622 310.011 337.773 310.031 337.911 310.07L337.734 312.015C337.649 311.995 337.557 311.982 337.459 311.975C337.367 311.962 337.262 311.956 337.144 311.956C336.634 311.956 336.162 312.07 335.73 312.3C335.304 312.522 335.003 312.768 334.826 313.036V319.833H332.94ZM343.111 320.03C342.102 320.03 341.241 319.807 340.528 319.362C339.82 318.91 339.277 318.308 338.897 317.555C338.524 316.795 338.337 315.95 338.337 315.02C338.337 314.09 338.524 313.249 338.897 312.496C339.277 311.736 339.82 311.134 340.528 310.689C341.241 310.237 342.102 310.011 343.111 310.011C344.113 310.011 344.971 310.237 345.684 310.689C346.398 311.134 346.942 311.736 347.315 312.496C347.695 313.249 347.885 314.09 347.885 315.02C347.885 315.95 347.695 316.795 347.315 317.555C346.942 318.308 346.398 318.91 345.684 319.362C344.971 319.807 344.113 320.03 343.111 320.03ZM343.111 318.458C344.067 318.458 344.8 318.157 345.311 317.555C345.822 316.946 346.077 316.101 346.077 315.02C346.077 313.94 345.822 313.098 345.311 312.496C344.8 311.887 344.067 311.582 343.111 311.582C342.161 311.582 341.428 311.887 340.911 312.496C340.4 313.098 340.144 313.94 340.144 315.02C340.144 316.101 340.4 316.946 340.911 317.555C341.428 318.157 342.161 318.458 343.111 318.458ZM353.165 320.03C352.412 320.03 351.77 319.879 351.24 319.578C350.71 319.27 350.304 318.805 350.022 318.183C349.747 317.561 349.61 316.769 349.61 315.806V310.207H351.378V315.315C351.378 316.337 351.551 317.116 351.898 317.653C352.252 318.19 352.825 318.458 353.617 318.458C354.161 318.458 354.665 318.327 355.13 318.065C355.595 317.803 355.916 317.384 356.092 316.808L355.837 317.771V310.207H357.605V319.833H356.033L355.68 317.947L356.151 318.262C355.83 318.858 355.438 319.303 354.973 319.598C354.514 319.886 353.912 320.03 353.165 320.03ZM363.33 320.03C362.721 320.03 362.233 319.919 361.866 319.696C361.5 319.473 361.231 319.188 361.061 318.841C360.897 318.488 360.815 318.118 360.815 317.731V311.582H359.165L359.322 310.207H360.815V307.83L362.583 307.653V310.207H365.118V311.582H362.583V316.651C362.583 317.266 362.619 317.712 362.691 317.987C362.763 318.262 362.94 318.435 363.222 318.507C363.51 318.579 363.972 318.615 364.607 318.615H365.059L364.921 320.03H363.33ZM366.628 319.833V310.207H368.397V319.833H366.628ZM366.628 308.046V306.082H368.397V308.046H366.628ZM370.792 319.833V310.207H372.167L372.52 312.054L371.833 311.759C372.481 311.039 373.113 310.567 373.728 310.345C374.351 310.122 374.956 310.011 375.546 310.011C376.954 310.011 377.959 310.417 378.561 311.229C379.17 312.041 379.475 313.141 379.475 314.529V319.833H377.707V314.529C377.707 313.508 377.517 312.761 377.137 312.29C376.757 311.818 376.109 311.582 375.192 311.582C374.544 311.582 373.948 311.727 373.404 312.015C372.867 312.296 372.514 312.748 372.343 313.37L372.56 312.29V319.833H370.792ZM386.382 320.03C385.249 320.03 384.296 319.797 383.523 319.332C382.751 318.867 382.165 318.252 381.765 317.486C381.372 316.713 381.176 315.865 381.176 314.942C381.176 314.045 381.359 313.223 381.726 312.476C382.099 311.73 382.636 311.134 383.337 310.689C384.044 310.237 384.895 310.011 385.891 310.011C386.689 310.011 387.4 310.171 388.022 310.492C388.651 310.807 389.142 311.268 389.495 311.877C389.856 312.48 390.036 313.213 390.036 314.077C390.036 314.215 390.029 314.366 390.016 314.529C390.009 314.686 389.99 314.85 389.957 315.02H382.983C383.068 315.911 383.281 316.605 383.622 317.103C383.962 317.6 384.391 317.951 384.908 318.154C385.426 318.357 385.989 318.458 386.598 318.458C387.043 318.458 387.508 318.412 387.993 318.321C388.477 318.229 388.935 318.085 389.368 317.889L389.603 319.283C389.23 319.447 388.775 319.614 388.238 319.784C387.701 319.948 387.082 320.03 386.382 320.03ZM383.14 313.802H388.209C388.209 313.351 388.124 312.958 387.953 312.624C387.783 312.29 387.524 312.034 387.177 311.858C386.83 311.674 386.388 311.582 385.851 311.582C385.065 311.582 384.46 311.779 384.034 312.172C383.615 312.558 383.317 313.102 383.14 313.802ZM391.602 319.833V317.751H393.723V319.833H391.602Z" fill="white"/>
</svg>
