<svg width="300" height="300" viewBox="0 0 300 300" fill="none" xmlns="http://www.w3.org/2000/svg">
<rect width="300" height="300" rx="4" fill="white"/>
<path d="M72.4917 153.44H76.4917L77.6117 147.64H72.9717L73.6917 144.12H78.3317L79.8917 136.08H83.6117L82.0517 144.12H88.1717L89.7317 136.08H93.4917L91.9317 144.12H96.0517L95.3717 147.64H91.2117L90.0917 153.44H94.5717L93.8917 156.96H89.3717L87.8117 165H84.0917L85.6517 156.96H79.4917L77.9317 165H74.2117L75.7717 156.96H71.7717L72.4917 153.44ZM80.2117 153.44H86.3317L87.4917 147.64H81.3317L80.2117 153.44ZM116.503 152.72H105.143V165H101.223V136.08H118.663V139.68H105.143V149.16H116.503V152.72ZM138.691 152.72H127.331V165H123.411V136.08H140.851V139.68H127.331V149.16H138.691V152.72ZM160.878 152.72H149.518V165H145.598V136.08H163.038V139.68H149.518V149.16H160.878V152.72ZM183.066 152.72H171.706V165H167.786V136.08H185.226V139.68H171.706V149.16H183.066V152.72ZM205.253 152.72H193.893V165H189.973V136.08H207.413V139.68H193.893V149.16H205.253V152.72ZM227.441 152.72H216.081V165H212.161V136.08H229.601V139.68H216.081V149.16H227.441V152.72Z" fill="#1B1B1B"/>
</svg>
